<svg xmlns="http://www.w3.org/2000/svg" xmlns:xlink="http://www.w3.org/1999/xlink" width="1366" zoomAndPan="magnify" viewBox="0 0 1024.5 576" height="768" preserveAspectRatio="xMidYMid meet" version="1.0"><defs><clipPath id="06f21b5f72"><path d="M 522 332 L 788 332 L 788 575.859375 L 522 575.859375 Z M 522 332 " clip-rule="nonzero"/></clipPath></defs><path fill="#8aa2d4" d="M 718.113281 82.339844 C 708.507812 76.445312 694.84375 80.589844 686.585938 81.820312 C 678.761719 82.945312 670.84375 84.386719 662.753906 85.007812 C 625.285156 87.8125 580.464844 86.03125 545.1875 65.09375 C 531.75 57.09375 521.03125 45.039062 511.167969 32.890625 C 504.445312 24.632812 498.261719 8.515625 488.328125 4.851562 C 477.59375 0.90625 472.296875 15.867188 467.023438 23.28125 C 460.664062 32.269531 454.488281 41.707031 445.96875 48.832031 C 430.617188 61.6875 412.726562 71.578125 393.636719 77.285156 C 361.777344 86.828125 330.964844 86.828125 299.96875 84.355469 C 286.910156 83.316406 275.242188 79.289062 263.066406 76.929688 C 239.375 72.550781 241.761719 114.675781 239.660156 126.667969 C 236.378906 143.449219 233.53125 160.167969 231.425781 176.84375 C 227.589844 207.109375 226.117188 237.277344 229.28125 267.285156 C 234.21875 314.785156 252.324219 361.050781 283.910156 403.859375 C 309.207031 438.089844 340.902344 469.089844 373.507812 496.539062 C 397.296875 516.53125 421.925781 535.179688 447.28125 549.953125 C 458.441406 556.449219 469.820312 562.320312 481.929688 565.066406 C 482.53125 565.203125 483.875 565.789062 484.457031 565.605469 C 495.167969 562.300781 505.109375 559.09375 515.417969 553.472656 C 539.316406 540.433594 562.425781 523.386719 584.855469 505.242188 C 617.03125 479.183594 648.535156 449.636719 674.839844 417.039062 C 707.300781 376.707031 728.820312 332.695312 736.890625 286.871094 C 742.90625 252.882812 742.292969 218.96875 738.5 184.628906 C 735.796875 160.339844 729.472656 136.003906 727.824219 111.675781 C 727.300781 103.804688 729.011719 93.277344 722.179688 85.714844 C 720.9375 84.335938 719.570312 83.226562 718.113281 82.339844 Z M 718.113281 82.339844 " fill-opacity="1" fill-rule="nonzero"/><path fill="#414370" d="M 483.699219 524.597656 C 474.042969 524.597656 408.957031 499.496094 347.417969 443.644531 C 306.664062 405.28125 279.351562 364.460938 263.890625 318.816406 C 243.59375 258.910156 244.945312 191.449219 267.90625 118.304688 C 267.945312 118.089844 268.011719 117.878906 268.101562 117.671875 C 268.554688 116.660156 269.625 115.992188 270.734375 115.992188 C 271.332031 115.992188 271.898438 116.132812 274.480469 116.785156 C 282.824219 118.894531 308.210938 125.3125 340.078125 125.3125 C 380.945312 125.3125 438.789062 114.390625 482.300781 62.375 C 482.835938 61.738281 483.636719 61.375 484.464844 61.367188 C 485.300781 61.371094 486.089844 61.746094 486.621094 62.386719 C 528.050781 112.488281 588.871094 123.007812 632.597656 123.007812 C 659.796875 123.007812 681.601562 119.011719 689.8125 117.507812 C 692.589844 117 693.421875 116.851562 694.039062 116.851562 C 695.117188 116.851562 696.230469 117.496094 696.699219 118.46875 C 696.800781 118.683594 696.875 118.90625 696.917969 119.132812 C 719.714844 192.507812 721.214844 260.074219 701.363281 319.945312 C 686.230469 365.59375 659.421875 406.300781 619.410156 444.386719 C 555.804688 502.761719 493.144531 524.589844 485.195312 524.589844 C 484.9375 524.589844 484.699219 524.574219 484.480469 524.542969 C 484.242188 524.578125 483.980469 524.597656 483.699219 524.597656 Z M 483.699219 518.976562 L 483.699219 521.769531 L 483.71875 518.976562 C 483.710938 518.976562 483.703125 518.976562 483.699219 518.976562 Z M 272.605469 122.113281 C 233.414062 248.988281 259.144531 352.832031 351.230469 439.515625 C 413.660156 496.175781 475.113281 518.292969 483.351562 518.960938 C 483.695312 518.816406 484.128906 518.765625 484.457031 518.734375 C 484.835938 518.734375 485.203125 518.8125 485.539062 518.949219 C 493.773438 518.273438 554.445312 496.378906 615.570312 440.28125 C 704.828125 355.316406 730.601562 248.492188 692.164062 122.792969 C 691.746094 122.867188 691.289062 122.953125 690.824219 123.039062 C 682.476562 124.566406 660.304688 128.628906 632.597656 128.628906 C 588.414062 128.628906 527.191406 118.117188 484.445312 68.523438 C 439.808594 120.019531 381.464844 130.933594 340.074219 130.933594 C 307.507812 130.933594 281.613281 124.386719 273.101562 122.234375 C 272.9375 122.195312 272.769531 122.152344 272.605469 122.113281 Z M 272.605469 122.113281 " fill-opacity="1" fill-rule="nonzero"/><path fill="#ffffff" d="M 599.4375 228.652344 C 583.027344 226.777344 566.519531 225.351562 549.984375 224.257812 C 550.238281 207.015625 550.425781 189.773438 550.542969 172.539062 C 550.625 162.089844 546.5625 152.027344 539.214844 144.210938 C 531.566406 136.097656 520.882812 131.210938 509.835938 130.910156 C 492.914062 130.449219 475.996094 130.445312 459.097656 130.910156 C 448.054688 131.210938 437.367188 136.082031 429.71875 144.199219 C 422.355469 152.019531 418.296875 162.082031 418.378906 172.492188 C 418.496094 189.742188 418.6875 206.996094 418.941406 224.253906 C 402.410156 225.347656 385.902344 226.777344 369.488281 228.652344 C 347.761719 231.1875 331.21875 250.472656 332.980469 271.582031 C 334.113281 285.40625 335.351562 299.253906 336.675781 313.117188 C 338.792969 334.660156 358.296875 351.242188 380.492188 349.464844 C 394.175781 348.359375 407.964844 347.523438 421.769531 346.835938 C 422.296875 363.570312 422.871094 380.308594 423.5 397.046875 C 424.390625 418.917969 441.984375 436.527344 463.40625 436.71875 C 463.628906 436.71875 463.84375 436.71875 464.0625 436.71875 C 477.660156 436.59375 491.242188 436.597656 504.886719 436.71875 C 505.097656 436.71875 505.308594 436.71875 505.519531 436.71875 C 526.945312 436.527344 544.53125 418.921875 545.425781 397.007812 C 546.050781 380.28125 546.628906 363.558594 547.152344 346.835938 C 560.957031 347.523438 574.75 348.359375 588.425781 349.464844 C 589.730469 349.574219 591.03125 349.613281 592.308594 349.589844 C 612.960938 349.183594 630.265625 333.410156 632.253906 313.070312 C 633.578125 299.230469 634.804688 285.414062 635.9375 271.613281 C 637.699219 250.472656 621.152344 231.1875 599.4375 228.652344 Z M 599.4375 228.652344 " fill-opacity="1" fill-rule="nonzero"/><g clip-path="url(#06f21b5f72)"><path fill="#f08486" d="M 648.222656 377.652344 C 630.433594 335.308594 603.675781 332.863281 576.785156 348.730469 C 550.558594 364.617188 524.195312 398.820312 522.40625 430.238281 C 520.660156 468.511719 531.386719 479.347656 565.742188 498.613281 C 593.070312 513.777344 633.453125 539.039062 638.648438 575.265625 C 637.371094 542.683594 687.242188 526.347656 707.769531 517.179688 C 741.625 502.472656 772.035156 499.023438 784.121094 460.550781 C 798.316406 417.199219 769.019531 370.738281 737.972656 347.128906 C 705.703125 323.769531 671.679688 323.261719 648.222656 377.652344 Z M 648.222656 377.652344 " fill-opacity="1" fill-rule="nonzero"/></g></svg>