<svg xmlns="http://www.w3.org/2000/svg" xmlns:xlink="http://www.w3.org/1999/xlink" width="1366" zoomAndPan="magnify" viewBox="0 0 1024.5 576" height="768" preserveAspectRatio="xMidYMid meet" version="1.0"><defs><clipPath id="ee82bd97a0"><path d="M 164 11 L 825 11 L 825 575.859375 L 164 575.859375 Z M 164 11 " clip-rule="nonzero"/></clipPath></defs><g clip-path="url(#ee82bd97a0)"><path fill="#d76b73" d="M 793.667969 82.089844 C 745.761719 6.609375 645.855469 0.539062 583.433594 21.917969 C 534.996094 38.542969 500.15625 84.726562 494.085938 92.644531 C 488.011719 84.726562 454.492188 39.464844 406.054688 22.972656 C 343.632812 1.59375 242.40625 6.609375 194.5 82.089844 C 175.496094 112.042969 115.710938 208.898438 245.308594 358.539062 C 245.308594 358.539062 367.914062 500.128906 481.152344 568.617188 C 486.296875 571.652344 492.894531 575.742188 493.425781 575.476562 C 493.953125 575.742188 501.210938 571.785156 506.359375 568.617188 C 619.59375 500.128906 742.859375 358.539062 742.859375 358.539062 C 872.460938 208.898438 812.675781 112.042969 793.667969 82.089844 Z M 793.667969 82.089844 " fill-opacity="1" fill-rule="nonzero"/></g><path fill="#ffffff" d="M 473.363281 434.546875 C 468.875 434.546875 464.785156 431.777344 463.203125 427.421875 L 385.730469 220.644531 L 356.433594 314.730469 C 354.980469 319.214844 350.757812 322.648438 346.007812 322.648438 L 262.863281 322.648438 C 256.792969 322.648438 251.910156 317.5 251.910156 311.429688 C 251.910156 305.359375 256.792969 300.214844 262.863281 300.214844 L 337.957031 300.214844 L 374.382812 183.695312 C 375.832031 179.210938 379.792969 176.175781 384.542969 176.042969 C 389.296875 175.910156 393.386719 178.8125 395.101562 183.167969 L 471.648438 387.4375 L 511.902344 233.046875 C 513.089844 228.5625 516.917969 225.394531 521.402344 225 C 525.890625 224.601562 530.246094 226.976562 532.226562 231.199219 L 564.296875 298.632812 L 599.53125 157.304688 C 600.722656 152.6875 604.8125 149.253906 609.5625 149.125 C 614.3125 148.859375 618.800781 151.894531 620.386719 156.378906 L 646.253906 229.882812 L 746.421875 230.144531 C 752.492188 230.144531 757.246094 234.234375 757.246094 240.175781 C 757.246094 246.242188 752.359375 250.203125 746.289062 250.203125 L 638.332031 250.730469 C 633.714844 250.730469 629.625 248.222656 628.039062 243.867188 L 611.675781 197.550781 L 577.757812 333.203125 C 576.703125 337.691406 572.875 340.988281 568.253906 341.515625 C 563.636719 341.914062 559.28125 339.539062 557.300781 335.316406 L 524.964844 267.488281 L 483.527344 426.367188 C 482.339844 430.984375 478.246094 434.285156 473.496094 434.546875 C 473.761719 434.546875 473.628906 434.546875 473.363281 434.546875 Z M 473.363281 434.546875 " fill-opacity="1" fill-rule="nonzero"/><path fill="#ffffff" d="M 285.296875 309.054688 C 285.296875 309.828125 285.261719 310.601562 285.183594 311.371094 C 285.109375 312.140625 284.996094 312.90625 284.84375 313.664062 C 284.695312 314.421875 284.503906 315.171875 284.28125 315.914062 C 284.054688 316.652344 283.796875 317.378906 283.5 318.09375 C 283.203125 318.808594 282.875 319.507812 282.507812 320.191406 C 282.144531 320.871094 281.746094 321.535156 281.316406 322.179688 C 280.886719 322.820312 280.425781 323.441406 279.9375 324.039062 C 279.445312 324.636719 278.925781 325.210938 278.378906 325.757812 C 277.832031 326.304688 277.257812 326.824219 276.660156 327.316406 C 276.0625 327.804688 275.441406 328.265625 274.800781 328.695312 C 274.15625 329.125 273.492188 329.523438 272.8125 329.886719 C 272.128906 330.25 271.429688 330.582031 270.714844 330.878906 C 270 331.175781 269.273438 331.433594 268.53125 331.660156 C 267.792969 331.882812 267.042969 332.070312 266.285156 332.222656 C 265.523438 332.375 264.761719 332.488281 263.988281 332.5625 C 263.21875 332.636719 262.449219 332.675781 261.675781 332.675781 C 260.902344 332.675781 260.128906 332.636719 259.359375 332.5625 C 258.589844 332.488281 257.824219 332.375 257.066406 332.222656 C 256.308594 332.070312 255.558594 331.882812 254.816406 331.660156 C 254.078125 331.433594 253.347656 331.175781 252.632812 330.878906 C 251.917969 330.582031 251.222656 330.25 250.539062 329.886719 C 249.855469 329.523438 249.191406 329.125 248.550781 328.695312 C 247.90625 328.265625 247.285156 327.804688 246.6875 327.316406 C 246.089844 326.824219 245.515625 326.304688 244.96875 325.757812 C 244.421875 325.210938 243.902344 324.636719 243.414062 324.039062 C 242.921875 323.441406 242.460938 322.820312 242.03125 322.179688 C 241.601562 321.535156 241.203125 320.871094 240.839844 320.191406 C 240.476562 319.507812 240.144531 318.808594 239.847656 318.09375 C 239.554688 317.378906 239.292969 316.652344 239.066406 315.914062 C 238.84375 315.171875 238.65625 314.421875 238.503906 313.664062 C 238.355469 312.90625 238.242188 312.140625 238.164062 311.371094 C 238.089844 310.601562 238.050781 309.828125 238.050781 309.054688 C 238.050781 308.28125 238.089844 307.511719 238.164062 306.742188 C 238.242188 305.96875 238.355469 305.207031 238.503906 304.449219 C 238.65625 303.6875 238.84375 302.9375 239.066406 302.199219 C 239.292969 301.457031 239.554688 300.730469 239.847656 300.015625 C 240.144531 299.300781 240.476562 298.601562 240.839844 297.921875 C 241.203125 297.238281 241.601562 296.578125 242.03125 295.933594 C 242.460938 295.289062 242.921875 294.667969 243.414062 294.070312 C 243.902344 293.472656 244.421875 292.902344 244.96875 292.355469 C 245.515625 291.804688 246.089844 291.289062 246.6875 290.796875 C 247.285156 290.304688 247.90625 289.847656 248.550781 289.417969 C 249.191406 288.984375 249.855469 288.589844 250.539062 288.222656 C 251.222656 287.859375 251.917969 287.53125 252.632812 287.234375 C 253.347656 286.9375 254.078125 286.675781 254.816406 286.453125 C 255.558594 286.226562 256.308594 286.039062 257.066406 285.890625 C 257.824219 285.738281 258.589844 285.625 259.359375 285.550781 C 260.128906 285.472656 260.902344 285.433594 261.675781 285.433594 C 262.449219 285.433594 263.21875 285.472656 263.988281 285.550781 C 264.761719 285.625 265.523438 285.738281 266.285156 285.890625 C 267.042969 286.039062 267.792969 286.226562 268.53125 286.453125 C 269.273438 286.675781 270 286.9375 270.714844 287.234375 C 271.429688 287.53125 272.128906 287.859375 272.8125 288.222656 C 273.492188 288.589844 274.15625 288.984375 274.800781 289.417969 C 275.441406 289.847656 276.0625 290.304688 276.660156 290.796875 C 277.257812 291.289062 277.832031 291.804688 278.378906 292.355469 C 278.925781 292.902344 279.445312 293.472656 279.9375 294.070312 C 280.425781 294.667969 280.886719 295.289062 281.316406 295.933594 C 281.746094 296.574219 282.144531 297.238281 282.507812 297.921875 C 282.875 298.601562 283.203125 299.300781 283.5 300.015625 C 283.796875 300.730469 284.054688 301.457031 284.28125 302.199219 C 284.503906 302.9375 284.695312 303.6875 284.84375 304.449219 C 284.996094 305.207031 285.109375 305.96875 285.183594 306.742188 C 285.261719 307.511719 285.296875 308.28125 285.296875 309.054688 Z M 285.296875 309.054688 " fill-opacity="1" fill-rule="nonzero"/><path fill="#ffffff" d="M 780.339844 240.570312 C 780.339844 241.34375 780.300781 242.113281 780.226562 242.886719 C 780.152344 243.65625 780.035156 244.417969 779.886719 245.179688 C 779.734375 245.9375 779.546875 246.6875 779.324219 247.425781 C 779.097656 248.167969 778.835938 248.894531 778.542969 249.609375 C 778.246094 250.324219 777.914062 251.023438 777.550781 251.703125 C 777.1875 252.386719 776.789062 253.050781 776.359375 253.691406 C 775.929688 254.335938 775.46875 254.957031 774.976562 255.554688 C 774.488281 256.152344 773.96875 256.726562 773.421875 257.273438 C 772.875 257.820312 772.300781 258.335938 771.703125 258.828125 C 771.105469 259.320312 770.484375 259.78125 769.839844 260.210938 C 769.199219 260.640625 768.535156 261.035156 767.851562 261.402344 C 767.171875 261.765625 766.472656 262.097656 765.757812 262.390625 C 765.042969 262.6875 764.3125 262.949219 763.574219 263.171875 C 762.832031 263.398438 762.082031 263.585938 761.324219 263.734375 C 760.566406 263.886719 759.800781 264 759.03125 264.078125 C 758.261719 264.152344 757.488281 264.191406 756.714844 264.191406 C 755.941406 264.191406 755.171875 264.152344 754.402344 264.078125 C 753.628906 264 752.867188 263.886719 752.109375 263.738281 C 751.347656 263.585938 750.597656 263.398438 749.859375 263.171875 C 749.117188 262.949219 748.390625 262.6875 747.675781 262.390625 C 746.960938 262.097656 746.261719 261.765625 745.582031 261.402344 C 744.898438 261.035156 744.234375 260.640625 743.589844 260.210938 C 742.949219 259.78125 742.328125 259.320312 741.730469 258.828125 C 741.132812 258.335938 740.558594 257.820312 740.011719 257.273438 C 739.464844 256.726562 738.945312 256.152344 738.453125 255.554688 C 737.964844 254.957031 737.503906 254.335938 737.074219 253.691406 C 736.644531 253.050781 736.246094 252.386719 735.882812 251.703125 C 735.515625 251.023438 735.1875 250.324219 734.890625 249.609375 C 734.59375 248.894531 734.335938 248.167969 734.109375 247.425781 C 733.886719 246.6875 733.699219 245.9375 733.546875 245.179688 C 733.394531 244.417969 733.28125 243.65625 733.207031 242.886719 C 733.128906 242.113281 733.09375 241.34375 733.09375 240.570312 C 733.09375 239.796875 733.128906 239.023438 733.207031 238.253906 C 733.28125 237.484375 733.394531 236.71875 733.546875 235.960938 C 733.699219 235.203125 733.886719 234.453125 734.109375 233.714844 C 734.335938 232.972656 734.59375 232.246094 734.890625 231.53125 C 735.1875 230.816406 735.515625 230.117188 735.882812 229.433594 C 736.246094 228.753906 736.644531 228.089844 737.074219 227.445312 C 737.503906 226.804688 737.964844 226.183594 738.453125 225.585938 C 738.945312 224.988281 739.464844 224.414062 740.011719 223.867188 C 740.558594 223.320312 741.132812 222.800781 741.730469 222.3125 C 742.328125 221.820312 742.949219 221.359375 743.589844 220.929688 C 744.234375 220.5 744.898438 220.101562 745.582031 219.738281 C 746.261719 219.375 746.960938 219.042969 747.675781 218.746094 C 748.390625 218.453125 749.117188 218.191406 749.859375 217.964844 C 750.597656 217.742188 751.347656 217.554688 752.109375 217.402344 C 752.867188 217.253906 753.628906 217.140625 754.402344 217.0625 C 755.171875 216.988281 755.941406 216.949219 756.714844 216.949219 C 757.488281 216.949219 758.261719 216.988281 759.03125 217.0625 C 759.800781 217.140625 760.566406 217.253906 761.324219 217.402344 C 762.082031 217.554688 762.832031 217.742188 763.574219 217.964844 C 764.3125 218.191406 765.042969 218.453125 765.757812 218.746094 C 766.472656 219.042969 767.171875 219.375 767.851562 219.738281 C 768.535156 220.101562 769.199219 220.5 769.839844 220.929688 C 770.484375 221.359375 771.105469 221.820312 771.703125 222.3125 C 772.300781 222.800781 772.875 223.320312 773.421875 223.867188 C 773.96875 224.414062 774.488281 224.988281 774.976562 225.585938 C 775.46875 226.183594 775.929688 226.804688 776.359375 227.445312 C 776.789062 228.089844 777.1875 228.753906 777.550781 229.433594 C 777.914062 230.117188 778.246094 230.816406 778.542969 231.53125 C 778.835938 232.246094 779.097656 232.972656 779.324219 233.714844 C 779.546875 234.453125 779.734375 235.203125 779.886719 235.960938 C 780.035156 236.71875 780.152344 237.484375 780.226562 238.253906 C 780.300781 239.023438 780.339844 239.796875 780.339844 240.570312 Z M 780.339844 240.570312 " fill-opacity="1" fill-rule="nonzero"/></svg>