<?xml version="1.0" encoding="utf-8"?>
<!-- Generator: Adobe Illustrator 27.4.1, SVG Export Plug-In . SVG Version: 6.00 Build 0)  -->
<svg version="1.1" id="Capa_1" xmlns="http://www.w3.org/2000/svg" xmlns:xlink="http://www.w3.org/1999/xlink" x="0px" y="0px"
	 viewBox="0 0 567.95 123.67" style="enable-background:new 0 0 567.95 123.67;" xml:space="preserve">
<style type="text/css">
	.st0{fill:#00257A;}
	.st1{fill:#009FDF;}
	.st2{fill:#F8E554;}
	.st3{fill:#43D9B0;}
</style>
<g>
	<g>
		<path class="st0" d="M144.68,35.77h8.49v43.94h30.07v8.19h-38.57V35.77H144.68z"/>
		<path class="st0" d="M261.67,50.66h8.14V87.9h-8.14V50.66z"/>
		<path class="st0" d="M304.11,82.24c-2.05,4.1-5.66,6.78-12.03,6.78c-9.84,0-17.2-6.78-17.2-19.74s6.3-19.74,16.91-19.74
			c6.51,0,10.26,2.38,12.31,6.55V32.04h8.14V87.9h-8.14v-5.66H304.11z M293.64,80.97c6.93,0,10.47-4.1,10.47-11.77
			s-3.54-11.69-10.47-11.69c-7.71,0-10.26,4.02-10.26,11.69S286.92,80.97,293.64,80.97z"/>
		<path class="st0" d="M337.36,49.54c13.37,0,19.81,6.78,19.81,19.74s-6.44,19.74-19.81,19.74s-19.81-6.78-19.81-19.74
			S323.99,49.54,337.36,49.54z M337.36,80.97c7.64,0,11.32-4.02,11.32-11.69c0-7.75-3.68-11.77-11.32-11.77
			c-7.93,0-11.32,4.02-11.32,11.77C326.04,76.95,329.72,80.97,337.36,80.97z"/>
		<path class="st0" d="M399.82,61.76c0-18.32,8-27.11,24.56-27.11c15.21,0,23.85,5.36,23.85,19.21h-8.14
			c0-9.16-8.21-10.87-15.99-10.87c-11.25,0-15.43,5.66-15.43,18.69c0,13.26,5.73,18.92,17.69,18.92c6.79,0,14.01-1.27,14.01-10.13
			h8.14c0,13.85-8.92,18.54-22.43,18.54C408.38,89.02,399.82,80.08,399.82,61.76z"/>
		<g>
			<circle class="st0" cx="265.74" cy="38.98" r="5.31"/>
		</g>
		<path class="st0" d="M470.16,49.54c-9.66,0-15.86,3.5-16.56,12.29h7.51c0.87-4.7,5.42-5.06,9.05-5.06c3.89,0,9.48,0.6,9.48,7.37
			v0.15l-12.53,1.34c-9.98,1.12-15.57,4.24-15.57,11.69c0,9.23,6.65,11.69,15.57,11.69c7.78,0,11.11-2.53,12.53-6.18v5.06h8.14
			V65.41C487.78,53.49,481.98,49.54,470.16,49.54z M479.64,75.39c-0.35,2.76-3.47,6.33-11.39,6.33c-6.09,0-8.21-1.71-8.21-4.54
			c0-3.65,3.68-4.99,8.28-5.51l11.32-1.19V75.39z"/>
		<path class="st0" d="M518.65,63.92h7.5c-0.49-9.66-5.04-14.37-13.12-14.37c-4.88,0-8.49,2.31-10.69,6.26v-5.14h-8.14V87.9h8.14
			V69.21c0-7.67,3.33-11.69,8.92-11.69C515.83,57.51,518.14,60.06,518.65,63.92z"/>
		<path class="st0" d="M548.2,49.54c-11.96,0-18.54,7-18.54,19.66c0,12.96,6.51,19.81,19.81,19.81c10.1,0,15.93-4.74,16.8-11.88
			h-7.74c-1.16,2.63-4.6,4.58-9.06,4.58c-6.44,0-10.47-2.53-11.18-9.9h28.52v-1.49C566.81,56.62,561.51,49.54,548.2,49.54z
			 M538.51,65.48c1.13-5.73,5.09-8.71,10.05-8.71c5.52,0,9.41,2.61,10.19,8.71H538.51z"/>
		<path class="st0" d="M205.83,49.54c-9.66,0-15.86,3.5-16.56,12.29h7.51c0.87-4.7,5.42-5.06,9.05-5.06c3.89,0,9.48,0.6,9.48,7.37
			v0.15l-12.53,1.34c-9.98,1.12-15.57,4.24-15.57,11.69c0,9.23,6.65,11.69,15.57,11.69c7.78,0,11.11-2.53,12.53-6.18v5.06h8.14
			V65.41C223.45,53.49,217.65,49.54,205.83,49.54z M215.31,75.39c-0.35,2.76-3.47,6.33-11.39,6.33c-6.09,0-8.21-1.71-8.21-4.54
			c0-3.65,3.68-4.99,8.28-5.51l11.32-1.19V75.39z"/>
		<path class="st0" d="M248.72,87.9c-8.35,0-12.81-4.17-12.81-14.37V58.48h-8.49v-7.82h8.49V39.34h8.14l-0.07,11.32h10.55v7.82
			h-10.48v13.93c0,3.87,0.64,7.45,4.95,7.45h5.96v8.04H248.72z"/>
		<path class="st0" d="M379.16,65.63c-7.93-1.49-10.9-2.98-10.9-5.06c0-1.86,1.27-3.8,8-3.8c6.9,0,10.9,1.19,11.68,5.06h7.52
			c-0.56-8.61-6.12-12.29-17.78-12.29c-10.9,0-16.49,3.28-16.49,11.17c0,8.86,8.56,11.02,16.28,12.29
			c7.43,1.34,11.39,1.49,11.39,4.84c0,2.31-2.26,3.87-8.21,3.87c-6.14,0-10.57-1.16-11.81-4.42h-7.69
			c0.8,8.2,6.58,11.72,18.44,11.72c10.69,0,16.35-3.2,16.35-11.39C395.93,68.61,389.2,67.49,379.16,65.63z"/>
	</g>
	<g>
		<g>
			<g>
				<path class="st1" d="M14.17,90.25c0,0,26.54,18.68,62.56,10.42c-0.17-0.35-19.18,26.75-41.98,20.7S14.17,90.25,14.17,90.25z"/>
			</g>
			<g>
				<path class="st2" d="M24.41,26.46c0,0-9.56,31.01,9.43,62.72c0.28-0.27-31.36-9.97-32.66-33.53S24.41,26.46,24.41,26.46z"/>
			</g>
			<g>
				<path class="st3" d="M88.24,16.48c0,0-32.45,0.49-56.74,28.35c0.34,0.18-0.21-32.91,21.8-41.42S88.24,16.48,88.24,16.48z"/>
			</g>
			<g>
				<path class="st1" d="M117.46,74.11c0,0-10.49-30.71-44.49-45.2c-0.07,0.38,31.23-10.37,46.13,7.93S117.46,74.11,117.46,74.11z"
					/>
			</g>
			<g>
				<path class="st2" d="M71.68,119.7c0,0,25.96-19.47,29.24-56.28c-0.39,0.05,19.51,26.5,6.71,46.32S71.68,119.7,71.68,119.7z"/>
			</g>
		</g>
		<path class="st0" d="M76.14,50.23c-7.77-1.12-11.2,5.98-12.39,9.41c-0.17,0.5-0.87,0.5-1.04,0c-1.19-3.43-4.62-10.53-12.39-9.41
			c-5.56,0.8-9.74,5.69-9.7,11.3c0.1,12.94,16.75,23.65,21.41,26.39c0.74,0.44,1.65,0.44,2.4,0c4.66-2.74,21.31-13.45,21.41-26.39
			C85.88,55.92,81.7,51.03,76.14,50.23z"/>
	</g>
</g>
</svg>
