<svg xmlns="http://www.w3.org/2000/svg" xmlns:xlink="http://www.w3.org/1999/xlink" width="500" zoomAndPan="magnify" viewBox="0 0 375 374.999991" height="500" preserveAspectRatio="xMidYMid meet" version="1.0"><defs><g/><clipPath id="a1589fc477"><path d="M 149.292969 122 L 225.792969 122 L 225.792969 198.410156 L 149.292969 198.410156 Z M 149.292969 122 " clip-rule="nonzero"/></clipPath></defs><g clip-path="url(#a1589fc477)"><path fill="#7ed957" d="M 219.902344 146.050781 L 201.75 146.050781 L 201.75 127.902344 C 201.75 124.679688 199.117188 122.046875 195.898438 122.046875 L 179.191406 122.046875 C 175.972656 122.046875 173.335938 124.679688 173.335938 127.902344 L 173.335938 144.761719 C 173.335938 147.378906 174.351562 149.816406 176.207031 151.671875 L 196.132812 171.597656 C 197.242188 172.707031 197.847656 174.171875 197.847656 175.734375 L 197.847656 192.59375 C 197.847656 193.667969 196.96875 194.546875 195.898438 194.546875 L 179.191406 194.546875 C 178.117188 194.546875 177.242188 193.667969 177.242188 192.59375 L 177.242188 172.492188 C 177.242188 171.421875 176.363281 170.542969 175.289062 170.542969 L 155.1875 170.542969 C 154.113281 170.542969 153.238281 169.664062 153.238281 168.589844 L 153.238281 151.90625 C 153.238281 150.832031 154.113281 149.953125 155.1875 149.953125 L 160.710938 149.953125 C 161.335938 150.890625 162.410156 151.496094 163.617188 151.496094 C 165.550781 151.496094 167.132812 149.914062 167.132812 147.984375 C 167.132812 146.050781 165.550781 144.46875 163.617188 144.46875 C 162.390625 144.46875 161.335938 145.09375 160.691406 146.03125 L 155.1875 146.03125 C 151.96875 146.03125 149.332031 148.664062 149.332031 151.886719 L 149.332031 168.570312 C 149.332031 171.792969 151.96875 174.425781 155.1875 174.425781 L 173.335938 174.425781 L 173.335938 192.574219 C 173.335938 195.796875 175.972656 198.429688 179.191406 198.429688 L 195.898438 198.429688 C 199.117188 198.429688 201.75 195.796875 201.75 192.574219 L 201.75 175.714844 C 201.75 173.097656 200.738281 170.660156 198.882812 168.804688 L 178.957031 148.917969 C 177.84375 147.808594 177.238281 146.34375 177.238281 144.78125 L 177.238281 127.921875 C 177.238281 126.847656 178.117188 125.96875 179.191406 125.96875 L 195.898438 125.96875 C 196.96875 125.96875 197.847656 126.847656 197.847656 127.921875 L 197.847656 148.023438 C 197.847656 149.09375 198.726562 149.972656 199.800781 149.972656 L 219.902344 149.972656 C 220.972656 149.972656 221.851562 150.851562 221.851562 151.925781 L 221.851562 168.609375 C 221.851562 169.683594 220.972656 170.5625 219.902344 170.5625 L 214.417969 170.5625 C 213.792969 169.625 212.71875 169 211.507812 169 C 209.578125 169 207.996094 170.582031 207.996094 172.511719 C 207.996094 174.445312 209.578125 176.027344 211.507812 176.027344 C 212.71875 176.027344 213.792969 175.402344 214.417969 174.464844 L 219.882812 174.464844 C 223.101562 174.464844 225.734375 171.832031 225.734375 168.609375 L 225.734375 151.925781 C 225.753906 148.683594 223.121094 146.050781 219.902344 146.050781 Z M 219.902344 146.050781 " fill-opacity="1" fill-rule="nonzero"/></g><g fill="#000000" fill-opacity="1"><g transform="translate(93.243652, 234.312611)"><g><path d="M 6.824219 0 L 6.824219 -9.53125 L 18.214844 -9.53125 L 18.214844 0 L 22.367188 0 L 22.367188 -22.582031 L 18.214844 -22.582031 L 18.214844 -13.214844 L 6.824219 -13.214844 L 6.824219 -22.582031 L 2.691406 -22.582031 L 2.691406 0 Z M 6.824219 0 "/></g></g></g><g fill="#000000" fill-opacity="1"><g transform="translate(118.292536, 234.312611)"><g><path d="M 18.597656 -8.832031 C 18.597656 -13.53125 15.144531 -17.582031 9.996094 -17.582031 C 4.863281 -17.582031 1.144531 -13.515625 1.144531 -8.535156 C 1.144531 -3.554688 4.863281 0.515625 9.996094 0.515625 C 14.246094 0.515625 17.285156 -2.292969 18.148438 -5.363281 L 13.765625 -5.363281 C 13.183594 -3.917969 11.9375 -3.070312 9.914062 -3.070312 C 7.554688 -3.070312 5.59375 -4.683594 5.179688 -7.472656 L 18.511719 -7.472656 C 18.578125 -8.101562 18.597656 -8.402344 18.597656 -8.832031 Z M 5.347656 -10.578125 C 6.027344 -12.984375 7.953125 -14.082031 9.980469 -14.082031 C 12.335938 -14.082031 14.328125 -12.484375 14.496094 -10.578125 Z M 5.347656 -10.578125 "/></g></g></g><g fill="#000000" fill-opacity="1"><g transform="translate(137.797135, 234.312611)"><g><path d="M 9.183594 0.515625 C 11.953125 0.515625 14.214844 -0.746094 15.324219 -2.871094 L 15.324219 0 L 19.144531 0 L 19.144531 -17.070312 L 15.324219 -17.070312 L 15.324219 -14.179688 C 14.230469 -16.304688 11.953125 -17.582031 9.164062 -17.582031 C 4.597656 -17.582031 1.144531 -13.515625 1.144531 -8.535156 C 1.144531 -3.519531 4.566406 0.515625 9.183594 0.515625 Z M 10.144531 -3.203125 C 7.4375 -3.203125 5.128906 -5.214844 5.128906 -8.535156 C 5.128906 -11.738281 7.390625 -13.863281 10.144531 -13.863281 C 12.933594 -13.863281 15.160156 -11.507812 15.160156 -8.535156 C 15.160156 -5.511719 12.949219 -3.203125 10.144531 -3.203125 Z M 10.144531 -3.203125 "/></g></g></g><g fill="#000000" fill-opacity="1"><g transform="translate(159.293693, 234.312611)"><g><path d="M 6.375 0 L 6.375 -23.394531 L 2.359375 -23.394531 L 2.359375 0 Z M 6.375 0 "/></g></g></g><g fill="#000000" fill-opacity="1"><g transform="translate(168.008517, 234.312611)"><g><path d="M 12.851562 0 L 12.851562 -3.335938 L 10.210938 -3.335938 C 8.933594 -3.335938 7.738281 -3.917969 7.738281 -6.308594 L 7.738281 -13.617188 L 12.851562 -13.617188 L 12.851562 -17.070312 L 7.738281 -17.070312 L 7.738281 -22.101562 L 3.71875 -22.066406 L 3.71875 -17.070312 L 0.183594 -17.070312 L 0.183594 -13.617188 L 3.71875 -13.617188 L 3.71875 -6.492188 C 3.71875 -0.863281 6.808594 0 9.382812 0 Z M 12.851562 0 "/></g></g></g><g fill="#000000" fill-opacity="1"><g transform="translate(181.753031, 234.312611)"><g><path d="M 6.375 0 L 6.375 -8.71875 C 6.375 -11.789062 8.535156 -13.882812 10.890625 -13.882812 C 13.316406 -13.882812 14.84375 -12.503906 14.84375 -9.117188 L 14.84375 0 L 18.863281 0 L 18.863281 -9.199219 C 18.863281 -14.5625 16.585938 -17.582031 12.003906 -17.582031 C 9.382812 -17.582031 7.339844 -16.371094 6.277344 -14.511719 L 6.375 -16.421875 L 6.375 -23.378906 L 2.359375 -23.378906 L 2.359375 0 Z M 6.375 0 "/></g></g></g><g fill="#000000" fill-opacity="1"><g transform="translate(202.834591, 234.312611)"><g><path d="M 11.554688 0 L 11.554688 -18.894531 L 18.28125 -18.894531 L 18.28125 -22.582031 L 0.714844 -22.582031 L 0.714844 -18.894531 L 7.4375 -18.894531 L 7.4375 0 Z M 11.554688 0 "/></g></g></g><g fill="#000000" fill-opacity="1"><g transform="translate(221.824595, 234.312611)"><g><path d="M 18.597656 -8.832031 C 18.597656 -13.53125 15.144531 -17.582031 9.996094 -17.582031 C 4.863281 -17.582031 1.144531 -13.515625 1.144531 -8.535156 C 1.144531 -3.554688 4.863281 0.515625 9.996094 0.515625 C 14.246094 0.515625 17.285156 -2.292969 18.148438 -5.363281 L 13.765625 -5.363281 C 13.183594 -3.917969 11.9375 -3.070312 9.914062 -3.070312 C 7.554688 -3.070312 5.59375 -4.683594 5.179688 -7.472656 L 18.511719 -7.472656 C 18.578125 -8.101562 18.597656 -8.402344 18.597656 -8.832031 Z M 5.347656 -10.578125 C 6.027344 -12.984375 7.953125 -14.082031 9.980469 -14.082031 C 12.335938 -14.082031 14.328125 -12.484375 14.496094 -10.578125 Z M 5.347656 -10.578125 "/></g></g></g><g fill="#000000" fill-opacity="1"><g transform="translate(241.329194, 234.312611)"><g><path d="M 9.960938 0.515625 C 14.347656 0.515625 17.566406 -2.292969 18.445312 -6.242188 L 14.363281 -6.242188 C 13.617188 -4.117188 11.921875 -3.203125 9.980469 -3.203125 C 7.523438 -3.203125 5.128906 -5.164062 5.128906 -8.535156 C 5.128906 -11.886719 7.503906 -13.847656 9.980469 -13.847656 C 11.921875 -13.847656 13.597656 -12.933594 14.363281 -11.042969 L 18.464844 -11.042969 C 17.5 -14.792969 14.363281 -17.582031 9.960938 -17.582031 C 4.863281 -17.582031 1.144531 -13.5 1.144531 -8.535156 C 1.144531 -3.554688 4.863281 0.515625 9.960938 0.515625 Z M 9.960938 0.515625 "/></g></g></g><g fill="#000000" fill-opacity="1"><g transform="translate(260.667797, 234.312611)"><g><path d="M 6.375 0 L 6.375 -8.71875 C 6.375 -11.789062 8.535156 -13.882812 10.890625 -13.882812 C 13.316406 -13.882812 14.84375 -12.503906 14.84375 -9.117188 L 14.84375 0 L 18.863281 0 L 18.863281 -9.199219 C 18.863281 -14.5625 16.585938 -17.582031 12.003906 -17.582031 C 9.382812 -17.582031 7.339844 -16.371094 6.277344 -14.511719 L 6.375 -16.421875 L 6.375 -23.378906 L 2.359375 -23.378906 L 2.359375 0 Z M 6.375 0 "/></g></g></g><g fill="#7ed957" fill-opacity="1"><g transform="translate(124.00043, 251.076487)"><g><path d="M 7.171875 0 L 6.234375 0 L 6.234375 -4.515625 L 4.328125 -0.625 L 3.65625 -0.625 L 1.75 -4.515625 L 1.75 0 L 0.796875 0 L 0.796875 -6.03125 L 2 -6.03125 L 4 -2.03125 L 5.984375 -6.03125 L 7.171875 -6.03125 Z M 7.171875 0 "/></g></g></g><g fill="#7ed957" fill-opacity="1"><g transform="translate(134.137547, 251.076487)"><g><path d="M 5.109375 -5.125 L 1.8125 -5.125 L 1.8125 -3.5 L 4.765625 -3.5 L 4.765625 -2.578125 L 1.8125 -2.578125 L 1.8125 -0.921875 L 5.203125 -0.921875 L 5.203125 0 L 0.796875 0 L 0.796875 -6.03125 L 5.109375 -6.03125 Z M 5.109375 -5.125 "/></g></g></g><g fill="#7ed957" fill-opacity="1"><g transform="translate(141.953905, 251.076487)"><g><path d="M 0.796875 -6.03125 L 3.265625 -6.03125 C 4.171875 -6.03125 4.914062 -5.742188 5.5 -5.171875 C 6.09375 -4.609375 6.390625 -3.890625 6.390625 -3.015625 C 6.390625 -2.140625 6.09375 -1.414062 5.5 -0.84375 C 4.90625 -0.28125 4.15625 0 3.25 0 L 0.796875 0 Z M 1.8125 -5.125 L 1.8125 -0.921875 L 3.296875 -0.921875 C 3.890625 -0.921875 4.378906 -1.113281 4.765625 -1.5 C 5.160156 -1.894531 5.359375 -2.394531 5.359375 -3 C 5.359375 -3.613281 5.15625 -4.117188 4.75 -4.515625 C 4.351562 -4.921875 3.851562 -5.125 3.25 -5.125 Z M 1.8125 -5.125 "/></g></g></g><g fill="#7ed957" fill-opacity="1"><g transform="translate(150.796917, 251.076487)"><g><path d="M 1.8125 0 L 0.796875 0 L 0.796875 -6.03125 L 1.8125 -6.03125 Z M 1.8125 0 "/></g></g></g><g fill="#7ed957" fill-opacity="1"><g transform="translate(155.559194, 251.076487)"><g><path d="M 3.46875 -6.0625 C 3.894531 -6.0625 4.3125 -5.976562 4.71875 -5.8125 C 5.125 -5.65625 5.472656 -5.425781 5.765625 -5.125 L 5.171875 -4.390625 C 4.953125 -4.628906 4.691406 -4.816406 4.390625 -4.953125 C 4.085938 -5.085938 3.785156 -5.15625 3.484375 -5.15625 C 2.878906 -5.15625 2.367188 -4.945312 1.953125 -4.53125 C 1.535156 -4.125 1.328125 -3.625 1.328125 -3.03125 C 1.328125 -2.4375 1.535156 -1.929688 1.953125 -1.515625 C 2.367188 -1.109375 2.878906 -0.90625 3.484375 -0.90625 C 4.109375 -0.90625 4.671875 -1.144531 5.171875 -1.625 L 5.765625 -0.953125 C 5.453125 -0.640625 5.085938 -0.394531 4.671875 -0.21875 C 4.265625 -0.0390625 3.851562 0.046875 3.4375 0.046875 C 2.550781 0.046875 1.804688 -0.242188 1.203125 -0.828125 C 0.597656 -1.421875 0.296875 -2.15625 0.296875 -3.03125 C 0.296875 -3.882812 0.597656 -4.601562 1.203125 -5.1875 C 1.816406 -5.769531 2.570312 -6.0625 3.46875 -6.0625 Z M 3.46875 -6.0625 "/></g></g></g><g fill="#7ed957" fill-opacity="1"><g transform="translate(163.729274, 251.076487)"><g><path d="M 4.6875 -1.359375 L 1.640625 -1.359375 L 1.0625 0 L 0.015625 0 L 2.671875 -6.03125 L 3.71875 -6.03125 L 6.359375 0 L 5.265625 0 Z M 4.296875 -2.265625 L 3.171875 -4.953125 L 2.03125 -2.265625 Z M 4.296875 -2.265625 "/></g></g></g><g fill="#7ed957" fill-opacity="1"><g transform="translate(172.253076, 251.076487)"><g><path d="M 1.8125 -0.921875 L 4.421875 -0.921875 L 4.421875 0 L 0.796875 0 L 0.796875 -6.03125 L 1.8125 -6.03125 Z M 1.8125 -0.921875 "/></g></g></g><g fill="#7ed957" fill-opacity="1"><g transform="translate(179.016903, 251.076487)"><g/></g></g><g fill="#7ed957" fill-opacity="1"><g transform="translate(183.399579, 251.076487)"><g><path d="M 2.78125 -6.078125 C 3.5625 -6.078125 4.265625 -5.867188 4.890625 -5.453125 L 4.46875 -4.5625 C 3.851562 -4.9375 3.265625 -5.125 2.703125 -5.125 C 2.398438 -5.125 2.160156 -5.066406 1.984375 -4.953125 C 1.804688 -4.847656 1.71875 -4.691406 1.71875 -4.484375 C 1.71875 -4.285156 1.796875 -4.113281 1.953125 -3.96875 C 2.117188 -3.832031 2.320312 -3.734375 2.5625 -3.671875 C 2.800781 -3.609375 3.0625 -3.523438 3.34375 -3.421875 C 3.625 -3.316406 3.882812 -3.207031 4.125 -3.09375 C 4.375 -2.988281 4.578125 -2.816406 4.734375 -2.578125 C 4.890625 -2.335938 4.96875 -2.046875 4.96875 -1.703125 C 4.96875 -1.179688 4.753906 -0.757812 4.328125 -0.4375 C 3.910156 -0.125 3.363281 0.03125 2.6875 0.03125 C 2.226562 0.03125 1.78125 -0.0507812 1.34375 -0.21875 C 0.914062 -0.394531 0.539062 -0.628906 0.21875 -0.921875 L 0.671875 -1.796875 C 0.972656 -1.515625 1.304688 -1.296875 1.671875 -1.140625 C 2.035156 -0.992188 2.378906 -0.921875 2.703125 -0.921875 C 3.066406 -0.921875 3.347656 -0.984375 3.546875 -1.109375 C 3.742188 -1.242188 3.84375 -1.425781 3.84375 -1.65625 C 3.84375 -1.863281 3.757812 -2.035156 3.59375 -2.171875 C 3.4375 -2.316406 3.234375 -2.421875 2.984375 -2.484375 C 2.742188 -2.554688 2.484375 -2.640625 2.203125 -2.734375 C 1.921875 -2.828125 1.660156 -2.925781 1.421875 -3.03125 C 1.179688 -3.132812 0.976562 -3.304688 0.8125 -3.546875 C 0.65625 -3.785156 0.578125 -4.070312 0.578125 -4.40625 C 0.578125 -4.914062 0.773438 -5.320312 1.171875 -5.625 C 1.578125 -5.925781 2.113281 -6.078125 2.78125 -6.078125 Z M 2.78125 -6.078125 "/></g></g></g><g fill="#7ed957" fill-opacity="1"><g transform="translate(190.922607, 251.076487)"><g><path d="M 1.21875 -5.1875 C 1.832031 -5.769531 2.585938 -6.0625 3.484375 -6.0625 C 4.390625 -6.0625 5.148438 -5.769531 5.765625 -5.1875 C 6.378906 -4.601562 6.6875 -3.878906 6.6875 -3.015625 C 6.6875 -2.148438 6.378906 -1.421875 5.765625 -0.828125 C 5.148438 -0.242188 4.390625 0.046875 3.484375 0.046875 C 2.585938 0.046875 1.832031 -0.242188 1.21875 -0.828125 C 0.601562 -1.421875 0.296875 -2.148438 0.296875 -3.015625 C 0.296875 -3.878906 0.601562 -4.601562 1.21875 -5.1875 Z M 3.5 -5.15625 C 2.90625 -5.15625 2.394531 -4.945312 1.96875 -4.53125 C 1.539062 -4.125 1.328125 -3.617188 1.328125 -3.015625 C 1.328125 -2.421875 1.539062 -1.914062 1.96875 -1.5 C 2.394531 -1.082031 2.90625 -0.875 3.5 -0.875 C 4.09375 -0.875 4.597656 -1.082031 5.015625 -1.5 C 5.441406 -1.914062 5.65625 -2.421875 5.65625 -3.015625 C 5.65625 -3.617188 5.441406 -4.125 5.015625 -4.53125 C 4.597656 -4.945312 4.09375 -5.15625 3.5 -5.15625 Z M 3.5 -5.15625 "/></g></g></g><g fill="#7ed957" fill-opacity="1"><g transform="translate(200.067572, 251.076487)"><g><path d="M 1.8125 -0.921875 L 4.421875 -0.921875 L 4.421875 0 L 0.796875 0 L 0.796875 -6.03125 L 1.8125 -6.03125 Z M 1.8125 -0.921875 "/></g></g></g><g fill="#7ed957" fill-opacity="1"><g transform="translate(206.831398, 251.076487)"><g><path d="M 5.921875 -6.03125 L 5.921875 -2.5 C 5.921875 -1.707031 5.6875 -1.082031 5.21875 -0.625 C 4.757812 -0.175781 4.117188 0.046875 3.296875 0.046875 C 2.484375 0.046875 1.84375 -0.175781 1.375 -0.625 C 0.90625 -1.082031 0.671875 -1.707031 0.671875 -2.5 L 0.671875 -6.03125 L 1.6875 -6.03125 L 1.6875 -2.5 C 1.6875 -2 1.832031 -1.601562 2.125 -1.3125 C 2.414062 -1.019531 2.8125 -0.875 3.3125 -0.875 C 3.800781 -0.875 4.1875 -1.015625 4.46875 -1.296875 C 4.757812 -1.585938 4.90625 -1.988281 4.90625 -2.5 L 4.90625 -6.03125 Z M 5.921875 -6.03125 "/></g></g></g><g fill="#7ed957" fill-opacity="1"><g transform="translate(215.579507, 251.076487)"><g><path d="M 4.921875 -5.125 L 3 -5.125 L 3 0 L 1.984375 0 L 1.984375 -5.125 L 0.078125 -5.125 L 0.078125 -6.03125 L 4.921875 -6.03125 Z M 4.921875 -5.125 "/></g></g></g><g fill="#7ed957" fill-opacity="1"><g transform="translate(222.731556, 251.076487)"><g><path d="M 1.8125 0 L 0.796875 0 L 0.796875 -6.03125 L 1.8125 -6.03125 Z M 1.8125 0 "/></g></g></g><g fill="#7ed957" fill-opacity="1"><g transform="translate(227.493834, 251.076487)"><g><path d="M 1.21875 -5.1875 C 1.832031 -5.769531 2.585938 -6.0625 3.484375 -6.0625 C 4.390625 -6.0625 5.148438 -5.769531 5.765625 -5.1875 C 6.378906 -4.601562 6.6875 -3.878906 6.6875 -3.015625 C 6.6875 -2.148438 6.378906 -1.421875 5.765625 -0.828125 C 5.148438 -0.242188 4.390625 0.046875 3.484375 0.046875 C 2.585938 0.046875 1.832031 -0.242188 1.21875 -0.828125 C 0.601562 -1.421875 0.296875 -2.148438 0.296875 -3.015625 C 0.296875 -3.878906 0.601562 -4.601562 1.21875 -5.1875 Z M 3.5 -5.15625 C 2.90625 -5.15625 2.394531 -4.945312 1.96875 -4.53125 C 1.539062 -4.125 1.328125 -3.617188 1.328125 -3.015625 C 1.328125 -2.421875 1.539062 -1.914062 1.96875 -1.5 C 2.394531 -1.082031 2.90625 -0.875 3.5 -0.875 C 4.09375 -0.875 4.597656 -1.082031 5.015625 -1.5 C 5.441406 -1.914062 5.65625 -2.421875 5.65625 -3.015625 C 5.65625 -3.617188 5.441406 -4.125 5.015625 -4.53125 C 4.597656 -4.945312 4.09375 -5.15625 3.5 -5.15625 Z M 3.5 -5.15625 "/></g></g></g><g fill="#7ed957" fill-opacity="1"><g transform="translate(236.638799, 251.076487)"><g><path d="M 6.03125 0 L 5.03125 0 L 1.8125 -4.328125 L 1.8125 0 L 0.796875 0 L 0.796875 -6.03125 L 1.796875 -6.03125 L 5.03125 -1.703125 L 5.03125 -6.03125 L 6.03125 -6.03125 Z M 6.03125 0 "/></g></g></g><g fill="#7ed957" fill-opacity="1"><g transform="translate(245.628481, 251.076487)"><g><path d="M 2.78125 -6.078125 C 3.5625 -6.078125 4.265625 -5.867188 4.890625 -5.453125 L 4.46875 -4.5625 C 3.851562 -4.9375 3.265625 -5.125 2.703125 -5.125 C 2.398438 -5.125 2.160156 -5.066406 1.984375 -4.953125 C 1.804688 -4.847656 1.71875 -4.691406 1.71875 -4.484375 C 1.71875 -4.285156 1.796875 -4.113281 1.953125 -3.96875 C 2.117188 -3.832031 2.320312 -3.734375 2.5625 -3.671875 C 2.800781 -3.609375 3.0625 -3.523438 3.34375 -3.421875 C 3.625 -3.316406 3.882812 -3.207031 4.125 -3.09375 C 4.375 -2.988281 4.578125 -2.816406 4.734375 -2.578125 C 4.890625 -2.335938 4.96875 -2.046875 4.96875 -1.703125 C 4.96875 -1.179688 4.753906 -0.757812 4.328125 -0.4375 C 3.910156 -0.125 3.363281 0.03125 2.6875 0.03125 C 2.226562 0.03125 1.78125 -0.0507812 1.34375 -0.21875 C 0.914062 -0.394531 0.539062 -0.628906 0.21875 -0.921875 L 0.671875 -1.796875 C 0.972656 -1.515625 1.304688 -1.296875 1.671875 -1.140625 C 2.035156 -0.992188 2.378906 -0.921875 2.703125 -0.921875 C 3.066406 -0.921875 3.347656 -0.984375 3.546875 -1.109375 C 3.742188 -1.242188 3.84375 -1.425781 3.84375 -1.65625 C 3.84375 -1.863281 3.757812 -2.035156 3.59375 -2.171875 C 3.4375 -2.316406 3.234375 -2.421875 2.984375 -2.484375 C 2.742188 -2.554688 2.484375 -2.640625 2.203125 -2.734375 C 1.921875 -2.828125 1.660156 -2.925781 1.421875 -3.03125 C 1.179688 -3.132812 0.976562 -3.304688 0.8125 -3.546875 C 0.65625 -3.785156 0.578125 -4.070312 0.578125 -4.40625 C 0.578125 -4.914062 0.773438 -5.320312 1.171875 -5.625 C 1.578125 -5.925781 2.113281 -6.078125 2.78125 -6.078125 Z M 2.78125 -6.078125 "/></g></g></g></svg>