<svg xmlns="http://www.w3.org/2000/svg" xmlns:xlink="http://www.w3.org/1999/xlink" width="1366" zoomAndPan="magnify" viewBox="0 0 1024.5 576" height="768" preserveAspectRatio="xMidYMid meet" version="1.0"><defs><clipPath id="235fb4dfb3"><path d="M 466 0.140625 L 554 0.140625 L 554 118 L 466 118 Z M 466 0.140625 " clip-rule="nonzero"/></clipPath><clipPath id="9ceaf68b31"><path d="M 336 462.292969 L 491 462.292969 L 491 575.859375 L 336 575.859375 Z M 336 462.292969 " clip-rule="nonzero"/></clipPath><clipPath id="b954260d83"><path d="M 467.484375 502 L 491 502 L 491 575.859375 L 467.484375 575.859375 Z M 467.484375 502 " clip-rule="nonzero"/></clipPath><clipPath id="67cea01989"><path d="M 430.089844 488.167969 L 491 488.167969 L 491 575.859375 L 430.089844 575.859375 Z M 430.089844 488.167969 " clip-rule="nonzero"/></clipPath><clipPath id="6a6100c440"><path d="M 612 160 L 730.980469 160 L 730.980469 249 L 612 249 Z M 612 160 " clip-rule="nonzero"/></clipPath></defs><path fill="#ee4624" d="M 303.003906 169.445312 C 311.9375 140.195312 342.902344 123.726562 372.160156 132.652344 C 383.007812 135.960938 392.09375 142.304688 398.78125 150.453125 L 355.984375 185.609375 L 400.140625 219.074219 C 386.507812 237.039062 362.636719 245.539062 339.804688 238.570312 C 310.546875 229.636719 294.066406 198.6875 303.003906 169.445312 " fill-opacity="1" fill-rule="nonzero"/><path fill="#2c325f" d="M 355.875 185.574219 L 373.726562 237.980469 C 365.328125 240.847656 356.195312 241.722656 347.023438 240.226562 C 345.46875 232.652344 344.203125 214.757812 355.875 185.574219 " fill-opacity="1" fill-rule="nonzero"/><path fill="#39ac42" d="M 355.875 185.574219 L 349.40625 240.566406 C 346.171875 240.179688 342.925781 239.519531 339.695312 238.539062 C 325.867188 234.316406 314.902344 225.179688 308.117188 213.636719 C 314.265625 196.917969 355.875 185.574219 355.875 185.574219 " fill-opacity="1" fill-rule="nonzero"/><path fill="#e9bf48" d="M 314.617188 148.621094 C 333.246094 158.042969 355.875 185.574219 355.875 185.574219 L 314.125 221.96875 C 301.992188 208.042969 297.097656 188.367188 302.886719 169.410156 C 305.316406 161.449219 309.398438 154.441406 314.617188 148.621094 " fill-opacity="1" fill-rule="nonzero"/><path fill="#da2133" d="M 304.078125 165.972656 C 310.070312 150.097656 322.734375 138.441406 337.84375 133.226562 L 355.875 185.574219 L 304.078125 165.972656 " fill-opacity="1" fill-rule="nonzero"/><path fill="#419fd6" d="M 420.007812 200.917969 C 418.046875 207.339844 415.019531 213.152344 411.179688 218.207031 L 367.023438 184.746094 L 409.820312 149.589844 C 421.179688 163.429688 425.628906 182.503906 420.007812 200.917969 " fill-opacity="1" fill-rule="nonzero"/><path fill="#293035" d="M 520.523438 141.253906 C 520.523438 145.757812 515.996094 149.410156 510.398438 149.410156 C 504.808594 149.410156 500.277344 145.757812 500.277344 141.253906 C 500.277344 136.753906 504.808594 133.101562 510.398438 133.101562 C 515.996094 133.101562 520.523438 136.753906 520.523438 141.253906 " fill-opacity="1" fill-rule="nonzero"/><path fill="#80bfb7" d="M 500.347656 142.929688 L 520.449219 142.929688 C 523.195312 141.445312 524.910156 139.363281 524.910156 137.050781 C 524.910156 132.546875 518.410156 128.894531 510.398438 128.894531 C 502.386719 128.894531 495.894531 132.546875 495.894531 137.050781 C 495.894531 139.363281 497.601562 141.445312 500.347656 142.929688 " fill-opacity="1" fill-rule="nonzero"/><path fill="#5e9391" d="M 497.9375 141.222656 L 522.863281 141.222656 C 524.15625 139.996094 524.910156 138.578125 524.910156 137.050781 C 524.910156 132.546875 518.410156 128.894531 510.398438 128.894531 C 502.386719 128.894531 495.894531 132.546875 495.894531 137.050781 C 495.894531 138.578125 496.640625 139.996094 497.9375 141.222656 " fill-opacity="1" fill-rule="nonzero"/><g clip-path="url(#235fb4dfb3)"><path fill="#efbb23" d="M 553.921875 43.699219 C 553.921875 19.675781 534.4375 0.195312 510.398438 0.195312 C 486.359375 0.195312 466.878906 19.675781 466.878906 43.699219 C 466.878906 54.433594 470.765625 64.261719 477.214844 71.847656 C 489.921875 86.714844 491.332031 101.921875 493.175781 110.070312 C 495.015625 118.222656 510.398438 117.429688 510.398438 117.429688 C 510.398438 117.429688 525.78125 118.222656 527.625 110.070312 C 529.464844 101.921875 530.875 86.714844 543.582031 71.847656 C 550.027344 64.261719 553.921875 54.433594 553.921875 43.699219 " fill-opacity="1" fill-rule="nonzero"/></g><path fill="#e7832c" d="M 553.921875 43.699219 C 553.921875 32.597656 549.761719 22.472656 542.914062 14.785156 C 545.476562 20.328125 546.910156 26.503906 546.910156 33.007812 C 546.910156 43.742188 543.015625 53.570312 536.566406 61.15625 C 523.863281 76.023438 522.453125 91.230469 520.613281 99.378906 C 518.769531 107.53125 503.386719 106.738281 503.386719 106.738281 C 503.386719 106.738281 497.1875 107.058594 492.191406 105.207031 C 492.546875 107.015625 492.855469 108.648438 493.175781 110.070312 C 495.015625 118.222656 510.398438 117.429688 510.398438 117.429688 C 510.398438 117.429688 525.78125 118.222656 527.625 110.070312 C 529.464844 101.921875 530.875 86.714844 543.582031 71.847656 C 550.027344 64.261719 553.921875 54.433594 553.921875 43.699219 " fill-opacity="1" fill-rule="nonzero"/><path fill="#5d9996" d="M 525.605469 138.160156 L 495.191406 138.160156 L 495.191406 112.898438 L 525.605469 112.898438 L 525.605469 138.160156 " fill-opacity="1" fill-rule="nonzero"/><path fill="#87bdb5" d="M 527.886719 112.898438 C 527.886719 113.4375 527.445312 113.882812 526.898438 113.882812 L 493.636719 113.882812 C 493.089844 113.882812 492.644531 113.4375 492.644531 112.898438 C 492.644531 112.355469 493.089844 111.910156 493.636719 111.910156 L 526.898438 111.910156 C 527.445312 111.910156 527.886719 112.355469 527.886719 112.898438 " fill-opacity="1" fill-rule="nonzero"/><path fill="#80bfb7" d="M 526.355469 121.277344 C 526.257812 121.769531 525.8125 122.113281 525.355469 122.023438 L 494.503906 116.339844 C 494.046875 116.257812 493.746094 115.78125 493.835938 115.285156 C 493.933594 114.785156 494.375 114.449219 494.835938 114.53125 L 525.683594 120.214844 C 526.144531 120.300781 526.445312 120.777344 526.355469 121.277344 " fill-opacity="1" fill-rule="nonzero"/><path fill="#80bfb7" d="M 526.355469 125.03125 C 526.257812 125.53125 525.8125 125.871094 525.355469 125.785156 L 494.503906 120.097656 C 494.046875 120.019531 493.746094 119.542969 493.835938 119.042969 C 493.933594 118.542969 494.375 118.207031 494.835938 118.289062 L 525.683594 123.976562 C 526.144531 124.0625 526.445312 124.535156 526.355469 125.03125 " fill-opacity="1" fill-rule="nonzero"/><path fill="#80bfb7" d="M 526.355469 128.796875 C 526.257812 129.296875 525.8125 129.625 525.355469 129.546875 L 494.503906 123.859375 C 494.046875 123.773438 493.746094 123.304688 493.835938 122.804688 C 493.933594 122.304688 494.375 121.96875 494.835938 122.050781 L 525.683594 127.734375 C 526.144531 127.816406 526.445312 128.296875 526.355469 128.796875 " fill-opacity="1" fill-rule="nonzero"/><path fill="#80bfb7" d="M 526.355469 132.550781 C 526.257812 133.050781 525.8125 133.386719 525.355469 133.304688 L 494.503906 127.621094 C 494.046875 127.539062 493.746094 127.066406 493.835938 126.558594 C 493.933594 126.0625 494.375 125.722656 494.835938 125.8125 L 525.683594 131.496094 C 526.144531 131.582031 526.445312 132.050781 526.355469 132.550781 " fill-opacity="1" fill-rule="nonzero"/><path fill="#80bfb7" d="M 526.355469 136.3125 C 526.257812 136.8125 525.8125 137.152344 525.355469 137.066406 L 494.503906 131.382812 C 494.046875 131.292969 493.746094 130.824219 493.835938 130.324219 C 493.933594 129.824219 494.375 129.484375 494.835938 129.570312 L 525.683594 135.253906 C 526.144531 135.34375 526.445312 135.8125 526.355469 136.3125 " fill-opacity="1" fill-rule="nonzero"/><path fill="#80bfb7" d="M 526.527344 138.8125 C 526.527344 139.316406 526.144531 139.734375 525.679688 139.734375 L 494.316406 139.898438 C 493.847656 139.898438 493.464844 139.488281 493.460938 138.980469 C 493.460938 138.46875 493.835938 138.058594 494.304688 138.054688 L 525.675781 137.890625 C 526.140625 137.890625 526.523438 138.300781 526.527344 138.8125 " fill-opacity="1" fill-rule="nonzero"/><path fill="#f4cb6b" d="M 512.898438 1.511719 C 512.898438 1.511719 484.875 2.183594 475.90625 21.835938 C 466.925781 41.496094 474.679688 66.175781 479.585938 69.679688 C 484.496094 73.183594 516.40625 80.015625 527.886719 40.765625 C 539.371094 1.511719 518.808594 2.691406 512.898438 1.511719 " fill-opacity="1" fill-rule="nonzero"/><path fill="#fadfae" d="M 500.433594 32.921875 C 493.375 43.691406 483.195312 49.496094 477.6875 45.894531 C 472.175781 42.289062 473.425781 30.636719 480.476562 19.867188 C 487.535156 9.097656 497.71875 3.289062 503.230469 6.894531 C 508.734375 10.5 507.484375 22.152344 500.433594 32.921875 " fill-opacity="1" fill-rule="nonzero"/><path fill="#262c3a" d="M 573.09375 391.527344 C 573.09375 393.898438 571.167969 395.820312 568.796875 395.820312 L 450.78125 395.820312 C 448.410156 395.820312 446.488281 393.898438 446.488281 391.527344 L 446.488281 164.085938 C 446.488281 161.71875 448.410156 159.796875 450.78125 159.796875 L 568.796875 159.796875 C 571.167969 159.796875 573.09375 161.71875 573.09375 164.085938 L 573.09375 391.527344 " fill-opacity="1" fill-rule="nonzero"/><path fill="#7cbee3" d="M 567.230469 362.71875 C 567.230469 364.59375 565.488281 366.109375 563.335938 366.109375 L 456.246094 366.109375 C 454.097656 366.109375 452.347656 364.59375 452.347656 362.71875 L 452.347656 182.949219 C 452.347656 181.074219 454.097656 179.554688 456.246094 179.554688 L 563.335938 179.554688 C 565.488281 179.554688 567.230469 181.074219 567.230469 182.949219 L 567.230469 362.71875 " fill-opacity="1" fill-rule="nonzero"/><path fill="#b4deee" d="M 538.652344 260.132812 C 547.589844 264.195312 556.527344 268.25 565.449219 272.324219 L 565.449219 185.726562 C 565.449219 183.914062 563.761719 182.441406 561.679688 182.441406 L 457.90625 182.441406 C 455.820312 182.441406 454.128906 183.914062 454.128906 185.726562 L 454.128906 219.761719 C 481.832031 234.164062 510.226562 247.226562 538.652344 260.132812 " fill-opacity="1" fill-rule="nonzero"/><path fill="#1a1a1f" d="M 568.796875 386.300781 L 450.78125 386.300781 C 448.410156 386.300781 446.488281 384.382812 446.488281 382.011719 L 446.488281 391.527344 C 446.488281 393.898438 448.410156 395.820312 450.78125 395.820312 L 568.796875 395.820312 C 571.167969 395.820312 573.09375 393.898438 573.09375 391.527344 L 573.09375 382.011719 C 573.09375 384.382812 571.167969 386.300781 568.796875 386.300781 " fill-opacity="1" fill-rule="nonzero"/><path fill="#3b6f89" d="M 568.796875 159.796875 L 450.78125 159.796875 C 448.410156 159.796875 446.488281 161.71875 446.488281 164.085938 L 446.488281 171.851562 C 446.488281 169.566406 448.410156 167.714844 450.78125 167.714844 L 568.796875 167.714844 C 571.167969 167.714844 573.09375 169.566406 573.09375 171.851562 L 573.09375 164.085938 C 573.09375 161.71875 571.167969 159.796875 568.796875 159.796875 " fill-opacity="1" fill-rule="nonzero"/><path fill="#f19a68" d="M 442.035156 237.742188 C 442.035156 237.742188 446.488281 244.175781 446.488281 252.488281 C 446.488281 260.796875 444.984375 267.5 442.035156 272.324219 C 442.035156 272.324219 443.550781 300.121094 438.546875 307.621094 C 438.546875 307.621094 438.457031 313.523438 440.332031 316.203125 C 442.207031 318.878906 446.488281 321.5625 446.488281 321.5625 L 446.488281 391.527344 C 446.488281 391.527344 446.328125 395.453125 449.539062 395.640625 C 452.757812 395.820312 534.566406 395.820312 534.566406 395.820312 C 534.566406 395.820312 523.050781 415.613281 519.363281 418.96875 C 519.363281 418.96875 503.273438 438.277344 486.828125 440.0625 L 454.28125 516.199219 L 365.234375 516.199219 C 365.234375 516.199219 410.523438 430.167969 412.671875 419.542969 C 412.671875 419.542969 404.570312 398.238281 404.390625 340.332031 C 404.390625 340.332031 403.855469 330.578125 404.921875 321.996094 C 405.996094 313.421875 423.253906 269.113281 424.777344 263.121094 C 425.765625 259.21875 433.113281 237.054688 435.058594 235.597656 C 436.488281 234.523438 440.390625 234.792969 442.035156 237.742188 " fill-opacity="1" fill-rule="nonzero"/><path fill="#cf764a" d="M 446.488281 391.527344 L 446.488281 321.5625 C 446.488281 321.5625 442.207031 318.878906 440.332031 316.203125 C 438.457031 313.523438 438.546875 307.621094 438.546875 307.621094 C 443.550781 300.121094 442.035156 272.324219 442.035156 272.324219 C 444.984375 267.5 446.488281 260.796875 446.488281 252.488281 C 446.488281 244.175781 442.035156 237.742188 442.035156 237.742188 C 440.390625 234.792969 436.488281 234.523438 435.058594 235.597656 C 434.90625 235.714844 434.714844 235.972656 434.496094 236.324219 C 438.265625 239.789062 443.9375 246.507812 442.480469 254.542969 C 440.332031 266.339844 436.039062 268.96875 434.613281 272.835938 C 434.613281 272.835938 432.109375 305.296875 428.53125 309.234375 C 424.957031 313.164062 422.808594 319.210938 425.308594 322.085938 C 427.816406 324.960938 449.386719 375.851562 442.714844 397.230469 C 442.714844 397.230469 443.371094 412.140625 449.898438 417.882812 C 449.898438 417.882812 449.628906 404.835938 456.429688 402.96875 C 463.21875 401.097656 499.855469 396.527344 509.792969 399.171875 C 516.425781 400.933594 524.992188 401.828125 531.347656 401.238281 C 533.242188 398.097656 534.566406 395.820312 534.566406 395.820312 C 534.566406 395.820312 452.757812 395.820312 449.539062 395.640625 C 446.328125 395.453125 446.488281 391.527344 446.488281 391.527344 " fill-opacity="1" fill-rule="nonzero"/><path fill="#cf764a" d="M 454.28125 516.199219 L 486.828125 440.0625 C 491.234375 439.582031 495.613281 437.835938 499.667969 435.550781 C 481.179688 438.59375 459.125 440.628906 452.347656 441.492188 C 443.46875 442.621094 416.253906 494.578125 405.289062 516.199219 L 454.28125 516.199219 " fill-opacity="1" fill-rule="nonzero"/><path fill="#8e452e" d="M 446.488281 391.527344 L 446.488281 321.5625 C 446.488281 321.5625 442.207031 318.878906 440.332031 316.203125 C 438.457031 313.523438 438.546875 307.621094 438.546875 307.621094 C 443.550781 300.121094 442.035156 272.324219 442.035156 272.324219 C 442.035156 272.324219 440.960938 303.15625 433.714844 309.324219 C 433.714844 309.324219 427.28125 313.566406 427.28125 316.132812 C 427.28125 316.132812 432.910156 313.566406 435.859375 316.132812 C 435.859375 316.132812 438.546875 319.238281 436.933594 323.800781 C 436.933594 323.800781 441.765625 324.433594 443.371094 329.609375 C 444.984375 334.792969 442.035156 396.132812 447.664062 397.230469 C 447.664062 397.230469 450.613281 398.546875 458.664062 397.230469 C 458.664062 397.230469 501.039062 395.703125 512.574219 397.816406 C 520.515625 399.277344 528.324219 399.121094 533.039062 398.417969 C 533.984375 396.824219 534.566406 395.820312 534.566406 395.820312 C 534.566406 395.820312 452.757812 395.820312 449.539062 395.640625 C 446.328125 395.453125 446.488281 391.527344 446.488281 391.527344 " fill-opacity="1" fill-rule="nonzero"/><path fill="#f5c0a4" d="M 435.058594 244 C 434.828125 243.664062 433.820312 242.324219 432.511719 240.59375 C 429.691406 247.503906 425.78125 259.410156 424.867188 262.789062 C 425.546875 263.09375 426.378906 263.238281 427.28125 262.941406 C 429.691406 262.140625 435.859375 245.167969 435.058594 244 " fill-opacity="1" fill-rule="nonzero"/><path fill="#fac1a4" d="M 418.519531 421.148438 C 413.574219 414.933594 407.304688 362.195312 404.261719 333.90625 C 404.242188 337.664062 404.390625 340.332031 404.390625 340.332031 C 404.570312 398.238281 412.671875 419.542969 412.671875 419.542969 C 411.402344 425.84375 394.945312 458.675781 381.765625 484.347656 C 398.226562 462.273438 423.128906 426.949219 418.519531 421.148438 " fill-opacity="1" fill-rule="nonzero"/><path fill="#f19a68" d="M 573.09375 302.269531 C 573.09375 302.269531 555.886719 314.949219 555.683594 321.382812 C 555.683594 321.382812 552.785156 337.832031 573.09375 334.96875 L 573.09375 338.246094 C 573.09375 338.246094 586.960938 337.472656 586.605469 332.824219 C 586.605469 332.824219 605.988281 317.617188 596.363281 305.65625 C 589.824219 297.535156 576.964844 299.253906 573.09375 302.269531 " fill-opacity="1" fill-rule="nonzero"/><path fill="#cf764a" d="M 586.246094 316.644531 C 584.460938 317.089844 568.21875 330.324219 568.21875 330.324219 C 569.203125 324.601562 562.070312 318.25 562.285156 316.203125 C 562.5 314.15625 572.132812 303.011719 572.167969 302.972656 C 568.601562 305.703125 555.859375 315.855469 555.683594 321.382812 C 555.683594 321.382812 552.785156 337.832031 573.09375 334.96875 L 573.09375 338.246094 C 573.09375 338.246094 586.960938 337.472656 586.605469 332.824219 C 586.605469 332.824219 596.207031 325.28125 598.53125 316.644531 C 595.976562 314.410156 588.03125 316.203125 586.246094 316.644531 " fill-opacity="1" fill-rule="nonzero"/><path fill="#f19a68" d="M 573.09375 296.464844 C 566.300781 296.078125 563.359375 292.605469 563.359375 292.605469 C 555.542969 286.355469 557.820312 276.648438 561.632812 271.753906 C 565.441406 266.859375 573.09375 266.492188 573.09375 266.492188 C 573.09375 266.492188 578.019531 264.894531 582.3125 264.894531 C 586.605469 264.894531 597.539062 271.683594 599.042969 273.828125 C 599.042969 273.828125 603.414062 279.207031 599.042969 287.789062 C 599.042969 287.789062 587.476562 297.273438 573.09375 296.464844 " fill-opacity="1" fill-rule="nonzero"/><path fill="#cf764a" d="M 599.21875 274.070312 C 599.441406 278.140625 598.859375 282.769531 598.050781 284.386719 C 596.796875 286.890625 585.53125 289.035156 578.734375 290.289062 C 571.941406 291.539062 573.09375 288.53125 573.09375 288.53125 C 576.027344 275.695312 566.398438 271.875 566.398438 270.542969 C 566.398438 269.871094 568.511719 268.265625 570.617188 266.839844 C 568.042969 267.355469 564.0625 268.636719 561.632812 271.753906 C 557.820312 276.648438 555.542969 286.355469 563.359375 292.605469 C 563.359375 292.605469 566.300781 296.078125 573.09375 296.464844 C 587.476562 297.273438 599.042969 287.789062 599.042969 287.789062 C 602.878906 280.253906 599.980469 275.195312 599.21875 274.070312 " fill-opacity="1" fill-rule="nonzero"/><path fill="#fcd3c2" d="M 560.320312 315.84375 C 560.320312 315.84375 567.292969 324.25 566.757812 331.929688 C 566.757812 331.929688 575.28125 330.324219 576.027344 326.214844 C 576.769531 322.101562 572.65625 316.023438 570.691406 314.777344 C 568.722656 313.523438 561.390625 314.238281 560.320312 315.84375 " fill-opacity="1" fill-rule="nonzero"/><path fill="#fcd3c2" d="M 567.292969 271.34375 C 567.292969 271.34375 573.429688 281.886719 570.332031 291 C 570.332031 291 579.308594 289.75 579.5625 287.964844 C 579.808594 286.175781 580.679688 277.597656 577.289062 273.128906 C 573.910156 268.664062 567.292969 271.34375 567.292969 271.34375 " fill-opacity="1" fill-rule="nonzero"/><path fill="#ceeef1" d="M 476.589844 526.753906 L 492.257812 468.074219 C 492.257812 468.074219 422.484375 435.792969 396.582031 435.277344 L 381.367188 478.644531 L 476.589844 526.753906 " fill-opacity="1" fill-rule="nonzero"/><path fill="#8cb7ba" d="M 476.589844 526.753906 L 487.347656 486.464844 C 460.730469 469.933594 407.050781 457.90625 389.890625 454.359375 L 381.367188 478.644531 L 476.589844 526.753906 " fill-opacity="1" fill-rule="nonzero"/><g clip-path="url(#9ceaf68b31)"><path fill="#1f1f2b" d="M 467.574219 576.140625 L 490.925781 502.175781 C 452.589844 479.292969 381.816406 462.9375 381.816406 462.9375 L 336.132812 576.140625 L 467.574219 576.140625 " fill-opacity="1" fill-rule="nonzero"/></g><g clip-path="url(#b954260d83)"><path fill="#67686b" d="M 467.574219 576.140625 L 490.925781 502.175781 L 467.574219 576.140625 M 490.832031 502.125 C 490.832031 502.121094 490.832031 502.125 490.832031 502.121094 C 490.832031 502.121094 490.832031 502.121094 490.832031 502.125 " fill-opacity="1" fill-rule="nonzero"/></g><g clip-path="url(#67cea01989)"><path fill="#1a181e" d="M 467.574219 576.140625 L 430.214844 576.140625 C 444.742188 537.996094 458.21875 501.378906 462.9375 488.507812 C 473.039062 492.6875 482.667969 497.257812 490.832031 502.121094 C 490.832031 502.125 490.832031 502.121094 490.832031 502.125 C 490.867188 502.140625 490.898438 502.160156 490.925781 502.175781 L 467.574219 576.140625 " fill-opacity="1" fill-rule="nonzero"/></g><path fill="#8e452e" d="M 582.132812 327.640625 C 578.902344 331.980469 575.332031 334.171875 573.09375 335.210938 L 573.09375 338.246094 C 573.09375 338.246094 586.960938 337.472656 586.605469 332.824219 C 586.605469 332.824219 592.183594 328.441406 595.871094 322.535156 C 592.234375 322.171875 585.925781 322.542969 582.132812 327.640625 " fill-opacity="1" fill-rule="nonzero"/><path fill="#f19a68" d="M 573.09375 335.628906 C 573.09375 335.628906 556.203125 347.476562 555.847656 352.480469 C 555.488281 357.488281 554.210938 368.300781 573.09375 366.109375 L 573.09375 368.929688 C 573.09375 368.929688 586.605469 368.570312 587.320312 362.851562 C 587.320312 362.851562 598.761719 352.488281 595.902344 344.621094 C 593.042969 336.757812 578.953125 331.222656 573.09375 335.628906 " fill-opacity="1" fill-rule="nonzero"/><path fill="#cf764a" d="M 586.246094 347.019531 C 583.207031 346.550781 569.71875 362.011719 569.71875 362.011719 C 569.285156 355.09375 561.390625 347.125 561.390625 347.019531 C 561.390625 346.96875 563.171875 344.484375 565.171875 341.707031 C 560.730469 345.390625 556.03125 349.871094 555.847656 352.480469 C 555.488281 357.488281 554.210938 368.300781 573.09375 366.109375 L 573.09375 368.929688 C 573.09375 368.929688 586.605469 368.570312 587.320312 362.851562 C 587.320312 362.851562 595.492188 355.445312 596.296875 348.40625 C 593.660156 346.769531 588.960938 347.433594 586.246094 347.019531 " fill-opacity="1" fill-rule="nonzero"/><path fill="#fcd3c2" d="M 562.285156 348.195312 C 562.285156 348.195312 568.246094 356.949219 568.21875 362.851562 C 568.21875 362.851562 574.261719 359.816406 574.621094 357.128906 C 574.980469 354.453125 574.609375 350.015625 571.929688 348.40625 C 569.246094 346.796875 563.890625 346.40625 562.285156 348.195312 " fill-opacity="1" fill-rule="nonzero"/><path fill="#8e452e" d="M 587.320312 362.851562 C 587.320312 362.851562 588.9375 361.386719 590.800781 359.140625 C 588.347656 359.253906 586.8125 357.75 587.5 356.238281 C 588.390625 354.273438 589.105469 348.730469 584.640625 355.316406 C 581.683594 359.664062 576.335938 363.796875 573.03125 366.113281 L 573.09375 366.109375 L 573.09375 368.929688 C 573.09375 368.929688 586.605469 368.570312 587.320312 362.851562 " fill-opacity="1" fill-rule="nonzero"/><path fill="#67a2c1" d="M 677.96875 163.980469 C 677.96875 164.3125 677.699219 164.582031 677.367188 164.582031 L 645.773438 164.582031 C 645.441406 164.582031 645.171875 164.3125 645.171875 163.980469 L 645.171875 156.0625 C 645.171875 155.726562 645.441406 155.460938 645.773438 155.460938 L 677.367188 155.460938 C 677.699219 155.460938 677.96875 155.726562 677.96875 156.0625 L 677.96875 163.980469 " fill-opacity="1" fill-rule="nonzero"/><path fill="#81b9de" d="M 648.378906 163.277344 C 648.378906 163.609375 648.117188 163.878906 647.777344 163.878906 L 616.183594 163.878906 C 615.851562 163.878906 615.582031 163.609375 615.582031 163.277344 L 615.582031 155.359375 C 615.582031 155.023438 615.851562 154.761719 616.183594 154.761719 L 647.777344 154.761719 C 648.117188 154.761719 648.378906 155.023438 648.378906 155.359375 L 648.378906 163.277344 " fill-opacity="1" fill-rule="nonzero"/><g clip-path="url(#6a6100c440)"><path fill="#81b9de" d="M 730.632812 247.546875 C 730.632812 247.875 730.363281 248.144531 730.03125 248.144531 L 613.476562 248.144531 C 613.144531 248.144531 612.875 247.875 612.875 247.546875 L 612.875 160.621094 C 612.875 160.289062 613.144531 160.019531 613.476562 160.019531 L 730.03125 160.019531 C 730.363281 160.019531 730.632812 160.289062 730.632812 160.621094 L 730.632812 247.546875 " fill-opacity="1" fill-rule="nonzero"/></g><path fill="#ffffff" d="M 728.828125 246.226562 C 728.828125 246.539062 728.5625 246.792969 728.242188 246.792969 L 615.261719 246.792969 C 614.941406 246.792969 614.679688 246.539062 614.679688 246.226562 L 614.679688 164.199219 C 614.679688 163.882812 614.941406 163.632812 615.261719 163.632812 L 728.242188 163.632812 C 728.5625 163.632812 728.828125 163.882812 728.828125 164.199219 L 728.828125 246.226562 " fill-opacity="1" fill-rule="nonzero"/><path fill="#ed1f4d" d="M 646.675781 159.570312 L 642.964844 159.570312 L 642.964844 155.859375 L 646.675781 155.859375 L 646.675781 159.570312 " fill-opacity="1" fill-rule="nonzero"/><path fill="#ed1f4d" d="M 676.695312 159.570312 L 673.335938 159.570312 L 673.335938 156.207031 L 676.695312 156.207031 L 676.695312 159.570312 " fill-opacity="1" fill-rule="nonzero"/><path fill="#b4ddee" d="M 727.722656 176.261719 L 615.785156 176.261719 L 615.785156 165.789062 L 727.722656 165.789062 L 727.722656 176.261719 " fill-opacity="1" fill-rule="nonzero"/><path fill="#ffffff" d="M 706.90625 173.402344 L 617.988281 173.402344 L 617.988281 169.796875 L 706.90625 169.796875 L 706.90625 173.402344 " fill-opacity="1" fill-rule="nonzero"/><path fill="#67a2c1" d="M 724.132812 173.257812 C 724.132812 173.585938 723.867188 173.855469 723.53125 173.855469 L 709.917969 173.855469 C 709.585938 173.855469 709.316406 173.585938 709.316406 173.257812 L 709.316406 169.644531 C 709.316406 169.3125 709.585938 169.042969 709.917969 169.042969 L 723.53125 169.042969 C 723.867188 169.042969 724.132812 169.3125 724.132812 169.644531 L 724.132812 173.257812 " fill-opacity="1" fill-rule="nonzero"/><path fill="#78b3c7" d="M 682.683594 211.601562 L 617.988281 211.601562 L 617.988281 181.222656 L 682.683594 181.222656 L 682.683594 211.601562 " fill-opacity="1" fill-rule="nonzero"/><path fill="#b4ddee" d="M 726.316406 182.730469 L 684.492188 182.730469 L 684.492188 181.222656 L 726.316406 181.222656 L 726.316406 182.730469 " fill-opacity="1" fill-rule="nonzero"/><path fill="#b4ddee" d="M 726.316406 186.339844 L 684.492188 186.339844 L 684.492188 184.835938 L 726.316406 184.835938 L 726.316406 186.339844 " fill-opacity="1" fill-rule="nonzero"/><path fill="#b4ddee" d="M 726.316406 189.945312 L 684.492188 189.945312 L 684.492188 188.441406 L 726.316406 188.441406 L 726.316406 189.945312 " fill-opacity="1" fill-rule="nonzero"/><path fill="#b4ddee" d="M 726.316406 193.554688 L 684.492188 193.554688 L 684.492188 192.050781 L 726.316406 192.050781 L 726.316406 193.554688 " fill-opacity="1" fill-rule="nonzero"/><path fill="#b4ddee" d="M 726.316406 197.164062 L 684.492188 197.164062 L 684.492188 195.660156 L 726.316406 195.660156 L 726.316406 197.164062 " fill-opacity="1" fill-rule="nonzero"/><path fill="#b4ddee" d="M 726.316406 200.777344 L 684.492188 200.777344 L 684.492188 199.269531 L 726.316406 199.269531 L 726.316406 200.777344 " fill-opacity="1" fill-rule="nonzero"/><path fill="#b4ddee" d="M 726.316406 204.386719 L 684.492188 204.386719 L 684.492188 202.875 L 726.316406 202.875 L 726.316406 204.386719 " fill-opacity="1" fill-rule="nonzero"/><path fill="#b4ddee" d="M 726.316406 207.992188 L 684.492188 207.992188 L 684.492188 206.488281 L 726.316406 206.488281 L 726.316406 207.992188 " fill-opacity="1" fill-rule="nonzero"/><path fill="#b4ddee" d="M 726.316406 211.601562 L 684.492188 211.601562 L 684.492188 210.097656 L 726.316406 210.097656 L 726.316406 211.601562 " fill-opacity="1" fill-rule="nonzero"/><path fill="#3fafaf" d="M 726.132812 243.730469 L 684.675781 243.730469 L 684.675781 214.859375 L 726.132812 214.859375 L 726.132812 243.730469 " fill-opacity="1" fill-rule="nonzero"/><path fill="#da2133" d="M 677.96875 243.730469 L 617.988281 243.730469 L 617.988281 214.859375 L 677.96875 214.859375 L 677.96875 243.730469 " fill-opacity="1" fill-rule="nonzero"/><path fill="#67a2c1" d="M 650.746094 150.773438 C 650.746094 151.105469 650.476562 151.375 650.144531 151.375 L 618.546875 151.375 C 618.21875 151.375 617.941406 151.105469 617.941406 150.773438 L 617.941406 142.851562 C 617.941406 142.519531 618.21875 142.25 618.546875 142.25 L 650.144531 142.25 C 650.476562 142.25 650.746094 142.519531 650.746094 142.851562 L 650.746094 150.773438 " fill-opacity="1" fill-rule="nonzero"/><path fill="#81b9de" d="M 621.15625 150.070312 C 621.15625 150.402344 620.886719 150.671875 620.554688 150.671875 L 588.960938 150.671875 C 588.621094 150.671875 588.359375 150.402344 588.359375 150.070312 L 588.359375 142.148438 C 588.359375 141.816406 588.621094 141.546875 588.960938 141.546875 L 620.554688 141.546875 C 620.886719 141.546875 621.15625 141.816406 621.15625 142.148438 L 621.15625 150.070312 " fill-opacity="1" fill-rule="nonzero"/><path fill="#81b9de" d="M 703.40625 234.332031 C 703.40625 234.664062 703.136719 234.9375 702.804688 234.9375 L 586.246094 234.9375 C 585.914062 234.9375 585.644531 234.664062 585.644531 234.332031 L 585.644531 147.414062 C 585.644531 147.082031 585.914062 146.808594 586.246094 146.808594 L 702.804688 146.808594 C 703.136719 146.808594 703.40625 147.082031 703.40625 147.414062 L 703.40625 234.332031 " fill-opacity="1" fill-rule="nonzero"/><path fill="#ffffff" d="M 701.597656 233.019531 C 701.597656 233.332031 701.339844 233.585938 701.019531 233.585938 L 588.03125 233.585938 C 587.710938 233.585938 587.453125 233.332031 587.453125 233.019531 L 587.453125 150.992188 C 587.453125 150.675781 587.710938 150.417969 588.03125 150.417969 L 701.019531 150.417969 C 701.339844 150.417969 701.597656 150.675781 701.597656 150.992188 L 701.597656 233.019531 " fill-opacity="1" fill-rule="nonzero"/><path fill="#ed1f4d" d="M 619.449219 146.359375 L 615.738281 146.359375 L 615.738281 142.652344 L 619.449219 142.652344 L 619.449219 146.359375 " fill-opacity="1" fill-rule="nonzero"/><path fill="#ed1f4d" d="M 649.464844 146.359375 L 646.105469 146.359375 L 646.105469 143 L 649.464844 143 L 649.464844 146.359375 " fill-opacity="1" fill-rule="nonzero"/><path fill="#b4ddee" d="M 700.496094 163.054688 L 588.558594 163.054688 L 588.558594 152.574219 L 700.496094 152.574219 L 700.496094 163.054688 " fill-opacity="1" fill-rule="nonzero"/><path fill="#ffffff" d="M 679.683594 160.195312 L 590.761719 160.195312 L 590.761719 156.589844 L 679.683594 156.589844 L 679.683594 160.195312 " fill-opacity="1" fill-rule="nonzero"/><path fill="#67a2c1" d="M 696.90625 160.042969 C 696.90625 160.378906 696.636719 160.644531 696.304688 160.644531 L 682.6875 160.644531 C 682.355469 160.644531 682.085938 160.378906 682.085938 160.042969 L 682.085938 156.4375 C 682.085938 156.101562 682.355469 155.839844 682.6875 155.839844 L 696.304688 155.839844 C 696.636719 155.839844 696.90625 156.101562 696.90625 156.4375 L 696.90625 160.042969 " fill-opacity="1" fill-rule="nonzero"/><path fill="#3fafaf" d="M 655.457031 198.390625 L 590.761719 198.390625 L 590.761719 168.015625 L 655.457031 168.015625 L 655.457031 198.390625 " fill-opacity="1" fill-rule="nonzero"/><path fill="#b4ddee" d="M 699.085938 169.515625 L 657.261719 169.515625 L 657.261719 168.015625 L 699.085938 168.015625 L 699.085938 169.515625 " fill-opacity="1" fill-rule="nonzero"/><path fill="#b4ddee" d="M 699.085938 173.128906 L 657.261719 173.128906 L 657.261719 171.628906 L 699.085938 171.628906 L 699.085938 173.128906 " fill-opacity="1" fill-rule="nonzero"/><path fill="#b4ddee" d="M 699.085938 176.738281 L 657.261719 176.738281 L 657.261719 175.234375 L 699.085938 175.234375 L 699.085938 176.738281 " fill-opacity="1" fill-rule="nonzero"/><path fill="#b4ddee" d="M 699.085938 180.347656 L 657.261719 180.347656 L 657.261719 178.84375 L 699.085938 178.84375 L 699.085938 180.347656 " fill-opacity="1" fill-rule="nonzero"/><path fill="#b4ddee" d="M 699.085938 183.953125 L 657.261719 183.953125 L 657.261719 182.453125 L 699.085938 182.453125 L 699.085938 183.953125 " fill-opacity="1" fill-rule="nonzero"/><path fill="#b4ddee" d="M 699.085938 187.5625 L 657.261719 187.5625 L 657.261719 186.066406 L 699.085938 186.066406 L 699.085938 187.5625 " fill-opacity="1" fill-rule="nonzero"/><path fill="#b4ddee" d="M 699.085938 191.175781 L 657.261719 191.175781 L 657.261719 189.667969 L 699.085938 189.667969 L 699.085938 191.175781 " fill-opacity="1" fill-rule="nonzero"/><path fill="#b4ddee" d="M 699.085938 194.785156 L 657.261719 194.785156 L 657.261719 193.28125 L 699.085938 193.28125 L 699.085938 194.785156 " fill-opacity="1" fill-rule="nonzero"/><path fill="#b4ddee" d="M 699.085938 198.390625 L 657.261719 198.390625 L 657.261719 196.890625 L 699.085938 196.890625 L 699.085938 198.390625 " fill-opacity="1" fill-rule="nonzero"/><path fill="#ea7a1f" d="M 698.902344 230.527344 L 657.453125 230.527344 L 657.453125 201.652344 L 698.902344 201.652344 L 698.902344 230.527344 " fill-opacity="1" fill-rule="nonzero"/><path fill="#39ac42" d="M 650.746094 230.527344 L 590.761719 230.527344 L 590.761719 201.652344 L 650.746094 201.652344 L 650.746094 230.527344 " fill-opacity="1" fill-rule="nonzero"/><path fill="#e1362a" d="M 540.414062 276.105469 C 532.050781 276.105469 525.269531 269.328125 525.269531 260.964844 C 525.269531 252.605469 532.050781 245.828125 540.414062 245.828125 C 548.78125 245.828125 555.5625 252.605469 555.5625 260.964844 C 555.5625 269.328125 548.78125 276.105469 540.414062 276.105469 M 572.476562 256.617188 C 571.710938 250.941406 569.472656 245.730469 566.15625 241.386719 L 572.464844 235.078125 L 566.3125 228.929688 L 560.011719 235.238281 C 555.660156 231.921875 550.441406 229.6875 544.761719 228.925781 L 544.761719 220.007812 L 536.066406 220.007812 L 536.066406 228.925781 C 530.382812 229.6875 525.175781 231.921875 520.824219 235.238281 L 514.515625 228.929688 L 508.363281 235.078125 L 514.675781 241.386719 C 511.359375 245.730469 509.117188 250.941406 508.359375 256.617188 L 499.4375 256.617188 L 499.4375 265.3125 L 508.359375 265.3125 C 509.117188 270.992188 511.359375 276.203125 514.675781 280.550781 L 508.363281 286.851562 L 514.515625 293 L 520.824219 286.695312 C 525.175781 290.007812 530.382812 292.246094 536.066406 293.011719 L 536.066406 301.921875 L 544.761719 301.921875 L 544.761719 293.011719 C 550.441406 292.246094 555.660156 290.007812 560.011719 286.695312 L 566.3125 293 L 572.464844 286.851562 L 566.15625 280.550781 C 569.472656 276.203125 571.710938 270.992188 572.476562 265.3125 L 581.390625 265.3125 L 581.390625 256.617188 L 572.476562 256.617188 " fill-opacity="1" fill-rule="nonzero"/><path fill="#ab2a27" d="M 540.414062 276.105469 C 532.050781 276.105469 525.269531 269.328125 525.269531 260.964844 C 525.269531 252.605469 532.050781 245.828125 540.414062 245.828125 C 548.78125 245.828125 555.5625 252.605469 555.5625 260.964844 C 555.5625 269.328125 548.78125 276.105469 540.414062 276.105469 M 540.414062 241.574219 C 529.703125 241.574219 521.015625 250.257812 521.015625 260.964844 C 521.015625 271.679688 529.703125 280.359375 540.414062 280.359375 C 551.128906 280.359375 559.8125 271.679688 559.8125 260.964844 C 559.8125 250.257812 551.128906 241.574219 540.414062 241.574219 " fill-opacity="1" fill-rule="nonzero"/><path fill="#c55037" d="M 566.15625 280.550781 C 566.167969 280.539062 566.179688 280.523438 566.191406 280.507812 C 566.179688 280.523438 566.167969 280.539062 566.15625 280.550781 M 566.207031 280.484375 C 566.210938 280.476562 566.210938 280.472656 566.21875 280.464844 C 566.210938 280.472656 566.210938 280.476562 566.207031 280.484375 " fill-opacity="1" fill-rule="nonzero"/><path fill="#d32b24" d="M 569.898438 289.417969 C 563.371094 286.660156 557.015625 283.488281 550.734375 280.167969 C 549.742188 279.753906 548.742188 279.34375 547.746094 278.929688 C 553.566406 276.546875 557.972656 271.433594 559.359375 265.183594 C 563.410156 266.742188 567.464844 268.304688 571.519531 269.859375 C 570.410156 273.746094 568.59375 277.328125 566.21875 280.464844 C 566.210938 280.472656 566.210938 280.476562 566.207031 280.484375 C 566.203125 280.496094 566.195312 280.5 566.191406 280.507812 C 566.179688 280.523438 566.167969 280.539062 566.15625 280.550781 L 572.464844 286.851562 L 570.988281 288.332031 L 569.898438 289.417969 " fill-opacity="1" fill-rule="nonzero"/><path fill="#6c7a8e" d="M 541.113281 276.09375 C 541.121094 276.085938 541.140625 276.085938 541.152344 276.085938 C 541.140625 276.085938 541.121094 276.085938 541.113281 276.09375 " fill-opacity="1" fill-rule="nonzero"/><path fill="#6c7a8e" d="M 541.15625 276.085938 C 541.195312 276.085938 541.242188 276.082031 541.28125 276.082031 C 541.242188 276.082031 541.195312 276.085938 541.15625 276.085938 " fill-opacity="1" fill-rule="nonzero"/><path fill="#6c7a8e" d="M 541.324219 276.082031 C 547.074219 275.738281 551.953125 272.191406 554.210938 267.203125 C 554.21875 267.203125 554.21875 267.203125 554.21875 267.203125 C 551.960938 272.195312 547.074219 275.738281 541.324219 276.082031 " fill-opacity="1" fill-rule="nonzero"/><path fill="#a68992" d="M 554.21875 267.203125 C 554.21875 267.203125 554.21875 267.203125 554.210938 267.203125 C 554.722656 266.074219 555.101562 264.875 555.324219 263.621094 C 555.324219 263.621094 555.324219 263.625 555.324219 263.625 C 555.105469 264.878906 554.730469 266.082031 554.21875 267.203125 " fill-opacity="1" fill-rule="nonzero"/><path fill="#d32b24" d="M 522.042969 267.21875 C 520.183594 266.25 518.347656 265.226562 516.554688 264.132812 L 518.683594 262.003906 L 516.425781 259.753906 L 513.808594 262.367188 C 512.140625 261.246094 510.523438 260.042969 508.972656 258.746094 C 508.164062 258.078125 507.414062 257.359375 506.683594 256.617188 L 504.296875 256.617188 L 508.359375 256.617188 C 509.078125 251.273438 511.101562 246.34375 514.101562 242.15625 C 517.464844 244.832031 521.050781 247.257812 524.785156 249.480469 C 522.414062 252.695312 521.015625 256.667969 521.015625 260.964844 C 521.015625 263.15625 521.375 265.261719 522.042969 267.21875 " fill-opacity="1" fill-rule="nonzero"/><path fill="#6c7a8e" d="M 525.269531 260.921875 C 525.269531 260.910156 525.269531 260.898438 525.269531 260.886719 C 525.269531 260.898438 525.269531 260.910156 525.269531 260.921875 M 525.269531 260.882812 C 525.269531 260.851562 525.269531 260.832031 525.269531 260.800781 C 525.269531 260.832031 525.269531 260.851562 525.269531 260.882812 M 525.269531 260.800781 C 525.269531 260.785156 525.269531 260.773438 525.269531 260.761719 C 525.269531 260.773438 525.269531 260.785156 525.269531 260.800781 M 525.269531 260.757812 C 525.296875 258.585938 525.785156 256.523438 526.640625 254.664062 L 526.644531 254.664062 C 525.785156 256.523438 525.296875 258.585938 525.269531 260.757812 " fill-opacity="1" fill-rule="nonzero"/><path fill="#a68992" d="M 526.644531 254.664062 L 526.640625 254.664062 C 527.140625 253.570312 527.769531 252.546875 528.503906 251.609375 C 528.511719 251.609375 528.511719 251.609375 528.511719 251.617188 C 527.773438 252.546875 527.144531 253.570312 526.644531 254.664062 " fill-opacity="1" fill-rule="nonzero"/><path fill="#a02020" d="M 547.746094 278.929688 C 545.511719 277.992188 543.28125 277.054688 541.054688 276.09375 C 541.0625 276.09375 541.0625 276.09375 541.066406 276.09375 C 541.082031 276.09375 541.09375 276.09375 541.105469 276.09375 C 541.113281 276.09375 541.113281 276.09375 541.113281 276.09375 C 541.121094 276.085938 541.140625 276.085938 541.152344 276.085938 C 541.15625 276.085938 541.15625 276.085938 541.15625 276.085938 C 541.195312 276.085938 541.242188 276.082031 541.28125 276.082031 L 541.285156 276.082031 C 541.296875 276.082031 541.3125 276.082031 541.324219 276.082031 C 548.371094 275.660156 554.121094 270.425781 555.324219 263.625 C 555.628906 263.738281 555.925781 263.855469 556.230469 263.976562 C 557.269531 264.375 558.3125 264.777344 559.359375 265.183594 C 557.972656 271.433594 553.566406 276.546875 547.746094 278.929688 M 540.386719 276.105469 C 540.386719 276.105469 540.382812 276.105469 540.382812 276.105469 C 540.382812 276.105469 540.386719 276.105469 540.386719 276.105469 M 540.363281 276.105469 C 540.359375 276.105469 540.359375 276.105469 540.351562 276.105469 C 540.351562 276.105469 540.359375 276.105469 540.363281 276.105469 M 540.335938 276.105469 C 540.332031 276.105469 540.332031 276.105469 540.324219 276.105469 C 540.332031 276.105469 540.332031 276.105469 540.335938 276.105469 M 540.308594 276.105469 C 540.308594 276.105469 540.304688 276.105469 540.296875 276.105469 C 540.304688 276.105469 540.308594 276.105469 540.308594 276.105469 M 540.28125 276.105469 C 540.28125 276.105469 540.273438 276.105469 540.273438 276.105469 C 540.273438 276.105469 540.28125 276.105469 540.28125 276.105469 M 540.253906 276.105469 C 540.253906 276.105469 540.246094 276.105469 540.246094 276.105469 C 540.246094 276.105469 540.253906 276.105469 540.253906 276.105469 M 540.140625 276.105469 C 540.140625 276.105469 540.132812 276.105469 540.132812 276.105469 C 540.132812 276.105469 540.132812 276.105469 540.140625 276.105469 M 540.113281 276.105469 C 540.113281 276.105469 540.105469 276.105469 540.105469 276.105469 C 540.105469 276.105469 540.113281 276.105469 540.113281 276.105469 M 528.625 270.472656 C 526.894531 269.644531 525.164062 268.804688 523.453125 267.945312 C 522.984375 267.703125 522.515625 267.460938 522.042969 267.21875 C 521.375 265.261719 521.015625 263.15625 521.015625 260.964844 C 521.015625 256.667969 522.414062 252.695312 524.785156 249.480469 C 526.011719 250.210938 527.253906 250.917969 528.503906 251.609375 C 527.769531 252.546875 527.140625 253.570312 526.640625 254.664062 C 525.785156 256.523438 525.296875 258.585938 525.269531 260.757812 C 525.269531 260.761719 525.269531 260.761719 525.269531 260.761719 C 525.269531 260.773438 525.269531 260.785156 525.269531 260.800781 C 525.269531 260.832031 525.269531 260.851562 525.269531 260.882812 C 525.269531 260.882812 525.269531 260.886719 525.269531 260.886719 C 525.269531 260.898438 525.269531 260.910156 525.269531 260.921875 C 525.269531 260.925781 525.269531 260.925781 525.269531 260.929688 C 525.269531 260.941406 525.269531 260.953125 525.269531 260.964844 C 525.269531 264.566406 526.527344 267.871094 528.625 270.472656 " fill-opacity="1" fill-rule="nonzero"/><path fill="#6c7a8e" d="M 540.414062 276.105469 C 540.617188 276.105469 540.820312 276.085938 541.023438 276.074219 C 541.03125 276.082031 541.042969 276.085938 541.054688 276.09375 C 541.03125 276.09375 541.003906 276.09375 540.984375 276.09375 C 540.964844 276.097656 540.953125 276.097656 540.9375 276.097656 C 540.9375 276.097656 540.9375 276.097656 540.933594 276.097656 C 540.921875 276.097656 540.910156 276.097656 540.898438 276.097656 C 540.894531 276.097656 540.894531 276.097656 540.894531 276.097656 C 540.875 276.097656 540.863281 276.097656 540.851562 276.097656 C 540.851562 276.097656 540.847656 276.097656 540.847656 276.097656 C 540.820312 276.097656 540.796875 276.097656 540.769531 276.105469 C 540.761719 276.105469 540.761719 276.105469 540.761719 276.105469 C 540.746094 276.105469 540.734375 276.105469 540.722656 276.105469 C 540.722656 276.105469 540.71875 276.105469 540.71875 276.105469 C 540.703125 276.105469 540.691406 276.105469 540.679688 276.105469 C 540.679688 276.105469 540.671875 276.105469 540.671875 276.105469 C 540.664062 276.105469 540.644531 276.105469 540.632812 276.105469 C 540.617188 276.105469 540.605469 276.105469 540.59375 276.105469 C 540.589844 276.105469 540.589844 276.105469 540.589844 276.105469 C 540.578125 276.105469 540.5625 276.105469 540.550781 276.105469 C 540.550781 276.105469 540.542969 276.105469 540.542969 276.105469 C 540.527344 276.105469 540.515625 276.105469 540.503906 276.105469 C 540.503906 276.105469 540.5 276.105469 540.5 276.105469 C 540.488281 276.105469 540.472656 276.105469 540.460938 276.105469 C 540.460938 276.105469 540.453125 276.105469 540.453125 276.105469 C 540.441406 276.105469 540.425781 276.105469 540.414062 276.105469 " fill-opacity="1" fill-rule="nonzero"/><path fill="#6c7a8e" d="M 540.082031 276.105469 C 535.453125 276.003906 531.335938 273.824219 528.625 270.472656 C 528.628906 270.472656 528.628906 270.472656 528.632812 270.472656 C 531.34375 273.824219 535.453125 276.003906 540.082031 276.105469 " fill-opacity="1" fill-rule="nonzero"/><path fill="#a02020" d="M 540.453125 276.105469 C 540.453125 276.105469 540.460938 276.105469 540.460938 276.105469 C 540.460938 276.105469 540.453125 276.105469 540.453125 276.105469 M 540.5 276.105469 C 540.5 276.105469 540.503906 276.105469 540.503906 276.105469 C 540.503906 276.105469 540.5 276.105469 540.5 276.105469 M 540.542969 276.105469 C 540.542969 276.105469 540.550781 276.105469 540.550781 276.105469 C 540.550781 276.105469 540.542969 276.105469 540.542969 276.105469 M 540.589844 276.105469 C 540.589844 276.105469 540.589844 276.105469 540.59375 276.105469 C 540.589844 276.105469 540.589844 276.105469 540.589844 276.105469 M 540.671875 276.105469 C 540.671875 276.105469 540.679688 276.105469 540.679688 276.105469 C 540.679688 276.105469 540.671875 276.105469 540.671875 276.105469 M 540.71875 276.105469 C 540.71875 276.105469 540.722656 276.105469 540.722656 276.105469 C 540.722656 276.105469 540.71875 276.105469 540.71875 276.105469 M 540.761719 276.105469 C 540.761719 276.105469 540.761719 276.105469 540.769531 276.105469 C 540.761719 276.105469 540.761719 276.105469 540.761719 276.105469 M 540.847656 276.097656 C 540.847656 276.097656 540.851562 276.097656 540.851562 276.097656 C 540.851562 276.097656 540.847656 276.097656 540.847656 276.097656 M 540.894531 276.097656 C 540.894531 276.097656 540.894531 276.097656 540.898438 276.097656 C 540.894531 276.097656 540.894531 276.097656 540.894531 276.097656 M 540.933594 276.097656 C 540.9375 276.097656 540.9375 276.097656 540.9375 276.097656 C 540.9375 276.097656 540.9375 276.097656 540.933594 276.097656 " fill-opacity="1" fill-rule="nonzero"/><path fill="#c62224" d="M 544.761719 301.921875 L 536.066406 301.921875 L 536.066406 293.011719 C 534.34375 292.773438 532.664062 292.410156 531.039062 291.921875 L 531.039062 291.816406 L 530.707031 291.816406 C 529.214844 291.347656 527.765625 290.777344 526.371094 290.101562 C 526.015625 285.632812 524.945312 281.214844 523.140625 277.03125 L 527.15625 275.121094 C 530.625 278.367188 535.285156 280.359375 540.414062 280.359375 C 543.011719 280.359375 545.484375 279.847656 547.746094 278.929688 C 548.742188 279.34375 549.742188 279.753906 550.734375 280.167969 C 557.015625 283.488281 563.371094 286.660156 569.898438 289.417969 L 566.3125 293 L 560.011719 286.695312 C 559.746094 286.894531 559.476562 287.09375 559.207031 287.289062 C 555.023438 290.277344 550.101562 292.292969 544.761719 293.011719 L 544.761719 301.921875 " fill-opacity="1" fill-rule="nonzero"/><path fill="#624d56" d="M 540.769531 276.105469 C 540.796875 276.097656 540.820312 276.097656 540.847656 276.097656 C 540.820312 276.097656 540.796875 276.097656 540.769531 276.105469 " fill-opacity="1" fill-rule="nonzero"/><path fill="#624d56" d="M 540.9375 276.097656 C 540.953125 276.097656 540.964844 276.097656 540.984375 276.09375 C 540.964844 276.097656 540.953125 276.097656 540.9375 276.097656 " fill-opacity="1" fill-rule="nonzero"/><path fill="#c62224" d="M 521.769531 274.148438 C 520.105469 270.976562 518 267.972656 515.453125 265.234375 L 516.554688 264.132812 C 518.347656 265.226562 520.183594 266.25 522.042969 267.21875 C 522.71875 269.191406 523.695312 271.023438 524.925781 272.644531 L 521.769531 274.148438 " fill-opacity="1" fill-rule="nonzero"/><path fill="#961a1f" d="M 540.414062 280.359375 C 535.285156 280.359375 530.625 278.367188 527.15625 275.121094 L 527.257812 275.078125 L 525.882812 272.195312 L 524.925781 272.644531 C 523.695312 271.023438 522.71875 269.191406 522.042969 267.21875 C 522.515625 267.460938 522.984375 267.703125 523.453125 267.945312 C 525.164062 268.804688 526.894531 269.644531 528.625 270.472656 C 531.335938 273.824219 535.453125 276.003906 540.082031 276.105469 C 540.089844 276.105469 540.101562 276.105469 540.105469 276.105469 C 540.105469 276.105469 540.113281 276.105469 540.113281 276.105469 C 540.117188 276.105469 540.128906 276.105469 540.132812 276.105469 C 540.132812 276.105469 540.140625 276.105469 540.140625 276.105469 C 540.144531 276.105469 540.15625 276.105469 540.164062 276.105469 C 540.171875 276.105469 540.183594 276.105469 540.191406 276.105469 C 540.214844 276.105469 540.230469 276.105469 540.246094 276.105469 C 540.246094 276.105469 540.253906 276.105469 540.253906 276.105469 C 540.257812 276.105469 540.261719 276.105469 540.273438 276.105469 C 540.273438 276.105469 540.28125 276.105469 540.28125 276.105469 C 540.285156 276.105469 540.292969 276.105469 540.296875 276.105469 C 540.304688 276.105469 540.308594 276.105469 540.308594 276.105469 C 540.3125 276.105469 540.320312 276.105469 540.324219 276.105469 C 540.332031 276.105469 540.332031 276.105469 540.335938 276.105469 C 540.34375 276.105469 540.347656 276.105469 540.351562 276.105469 C 540.359375 276.105469 540.359375 276.105469 540.363281 276.105469 C 540.371094 276.105469 540.375 276.105469 540.382812 276.105469 C 540.382812 276.105469 540.386719 276.105469 540.386719 276.105469 C 540.398438 276.105469 540.402344 276.105469 540.414062 276.105469 C 540.425781 276.105469 540.441406 276.105469 540.453125 276.105469 C 540.453125 276.105469 540.460938 276.105469 540.460938 276.105469 C 540.472656 276.105469 540.488281 276.105469 540.5 276.105469 C 540.5 276.105469 540.503906 276.105469 540.503906 276.105469 C 540.515625 276.105469 540.527344 276.105469 540.542969 276.105469 C 540.542969 276.105469 540.550781 276.105469 540.550781 276.105469 C 540.5625 276.105469 540.578125 276.105469 540.589844 276.105469 C 540.589844 276.105469 540.589844 276.105469 540.59375 276.105469 C 540.605469 276.105469 540.617188 276.105469 540.632812 276.105469 C 540.644531 276.105469 540.664062 276.105469 540.671875 276.105469 C 540.671875 276.105469 540.679688 276.105469 540.679688 276.105469 C 540.691406 276.105469 540.703125 276.105469 540.71875 276.105469 C 540.71875 276.105469 540.722656 276.105469 540.722656 276.105469 C 540.734375 276.105469 540.746094 276.105469 540.761719 276.105469 C 540.761719 276.105469 540.761719 276.105469 540.769531 276.105469 C 540.796875 276.097656 540.820312 276.097656 540.847656 276.097656 C 540.847656 276.097656 540.851562 276.097656 540.851562 276.097656 C 540.863281 276.097656 540.875 276.097656 540.894531 276.097656 C 540.894531 276.097656 540.894531 276.097656 540.898438 276.097656 C 540.910156 276.097656 540.921875 276.097656 540.933594 276.097656 C 540.9375 276.097656 540.9375 276.097656 540.9375 276.097656 C 540.953125 276.097656 540.964844 276.097656 540.984375 276.09375 C 541.003906 276.09375 541.03125 276.09375 541.054688 276.09375 C 543.28125 277.054688 545.511719 277.992188 547.746094 278.929688 C 545.484375 279.847656 543.011719 280.359375 540.414062 280.359375 " fill-opacity="1" fill-rule="nonzero"/><path fill="#c62224" d="M 513.195312 262.976562 C 510.453125 260.433594 507.449219 258.324219 504.28125 256.664062 L 504.296875 256.617188 L 506.683594 256.617188 C 507.414062 257.359375 508.164062 258.078125 508.972656 258.746094 C 510.523438 260.042969 512.140625 261.246094 513.808594 262.367188 L 513.195312 262.976562 " fill-opacity="1" fill-rule="nonzero"/><path fill="#63c0d5" d="M 507.421875 283.695312 C 503.9375 287.175781 498.296875 287.175781 494.816406 283.695312 C 491.335938 280.21875 491.335938 274.578125 494.816406 271.101562 C 498.296875 267.621094 503.9375 267.621094 507.421875 271.101562 C 510.898438 274.578125 510.898438 280.21875 507.421875 283.695312 M 507.421875 315.820312 C 503.9375 319.296875 498.296875 319.296875 494.816406 315.820312 C 491.335938 312.339844 491.335938 306.699219 494.816406 303.21875 C 498.296875 299.738281 503.9375 299.738281 507.421875 303.21875 C 510.898438 306.699219 510.898438 312.339844 507.421875 315.820312 M 487.6875 296.09375 C 486.207031 297.570312 483.804688 297.570312 482.328125 296.09375 C 480.84375 294.613281 480.84375 292.214844 482.328125 290.730469 C 483.804688 289.25 486.207031 289.25 487.6875 290.730469 C 489.167969 292.214844 489.167969 294.613281 487.6875 296.09375 M 475.285156 283.695312 C 471.804688 287.175781 466.164062 287.175781 462.679688 283.695312 C 459.199219 280.21875 459.199219 274.578125 462.679688 271.101562 C 466.164062 267.621094 471.804688 267.621094 475.285156 271.101562 C 478.769531 274.578125 478.769531 280.21875 475.285156 283.695312 M 475.285156 315.820312 C 471.804688 319.296875 466.164062 319.296875 462.679688 315.820312 C 459.199219 312.339844 459.199219 306.699219 462.679688 303.21875 C 466.164062 299.738281 471.804688 299.738281 475.285156 303.21875 C 478.769531 306.699219 478.769531 312.339844 475.285156 315.820312 M 531.039062 295.011719 L 531.039062 291.816406 L 526.472656 291.816406 C 526.28125 286.773438 525.175781 281.753906 523.140625 277.03125 L 527.257812 275.078125 L 525.882812 272.195312 L 521.769531 274.148438 C 520.105469 270.976562 518 267.972656 515.453125 265.234375 L 518.683594 262.003906 L 516.425781 259.753906 L 513.195312 262.976562 C 510.453125 260.433594 507.449219 258.324219 504.28125 256.664062 L 506.234375 252.554688 L 503.355469 251.183594 L 501.394531 255.292969 C 496.675781 253.265625 491.652344 252.15625 486.601562 251.964844 L 486.601562 247.398438 L 483.410156 247.398438 L 483.410156 251.964844 C 478.816406 252.136719 474.242188 253.074219 469.898438 254.773438 L 468.078125 250.59375 L 465.152344 251.867188 L 466.972656 256.046875 C 463.335938 257.792969 459.910156 260.105469 456.808594 262.976562 L 453.585938 259.746094 L 451.328125 262.003906 L 454.558594 265.234375 C 451.679688 268.328125 449.371094 271.757812 447.617188 275.386719 L 443.4375 273.566406 L 442.164062 276.492188 L 446.34375 278.308594 C 444.648438 282.652344 443.714844 287.222656 443.539062 291.816406 L 438.972656 291.816406 L 438.972656 295.011719 L 443.539062 295.011719 C 443.730469 300.058594 444.84375 305.078125 446.867188 309.792969 L 442.753906 311.753906 L 444.128906 314.628906 L 448.238281 312.675781 C 449.90625 315.847656 452.011719 318.851562 454.558594 321.59375 L 451.328125 324.820312 L 453.585938 327.078125 L 456.808594 323.847656 C 459.558594 326.394531 462.558594 328.5 465.730469 330.160156 L 463.777344 334.269531 L 466.65625 335.640625 L 468.613281 331.53125 C 473.335938 333.558594 478.359375 334.671875 483.410156 334.859375 L 483.410156 339.425781 L 486.601562 339.425781 L 486.601562 334.859375 C 491.195312 334.6875 495.769531 333.75 500.113281 332.054688 L 501.933594 336.230469 L 504.859375 334.957031 L 503.039062 330.785156 C 506.675781 329.03125 510.101562 326.71875 513.195312 323.847656 L 516.425781 327.078125 L 518.683594 324.820312 L 515.453125 321.59375 C 518.324219 318.5 520.640625 315.066406 522.394531 311.441406 L 526.566406 313.257812 L 527.84375 310.332031 L 523.667969 308.515625 C 525.359375 304.175781 526.296875 299.601562 526.472656 295.011719 L 531.039062 295.011719 " fill-opacity="1" fill-rule="nonzero"/><path fill="#4497ab" d="M 507.421875 283.695312 C 503.9375 287.175781 498.296875 287.175781 494.816406 283.695312 C 491.335938 280.21875 491.335938 274.578125 494.816406 271.101562 C 498.296875 267.621094 503.9375 267.621094 507.421875 271.101562 C 510.898438 274.578125 510.898438 280.21875 507.421875 283.695312 Z M 508.753906 269.765625 C 504.539062 265.554688 497.703125 265.554688 493.484375 269.765625 C 489.265625 273.980469 489.265625 280.816406 493.484375 285.03125 C 497.703125 289.242188 504.539062 289.242188 508.753906 285.03125 C 512.972656 280.816406 512.972656 273.980469 508.753906 269.765625 " fill-opacity="1" fill-rule="nonzero"/><path fill="#4497ab" d="M 487.6875 296.09375 C 486.207031 297.570312 483.804688 297.570312 482.328125 296.09375 C 480.84375 294.613281 480.84375 292.214844 482.328125 290.730469 C 483.804688 289.25 486.207031 289.25 487.6875 290.730469 C 489.167969 292.214844 489.167969 294.613281 487.6875 296.09375 Z M 488.976562 289.441406 C 486.785156 287.25 483.226562 287.25 481.035156 289.441406 C 478.835938 291.636719 478.835938 295.191406 481.035156 297.386719 C 483.226562 299.582031 486.785156 299.582031 488.976562 297.386719 C 491.175781 295.191406 491.175781 291.636719 488.976562 289.441406 " fill-opacity="1" fill-rule="nonzero"/><path fill="#326f84" d="M 512.003906 266.429688 L 511.5 266.933594 C 518.8125 274.246094 522.472656 283.824219 522.472656 293.414062 C 522.472656 303 518.8125 312.578125 511.5 319.890625 C 504.179688 327.207031 494.597656 330.855469 485.007812 330.855469 C 475.417969 330.855469 465.832031 327.207031 458.511719 319.890625 C 451.199219 312.578125 447.539062 303 447.539062 293.414062 C 447.539062 283.824219 451.199219 274.246094 458.511719 266.933594 C 465.832031 259.617188 475.417969 255.96875 485.007812 255.96875 C 494.597656 255.96875 504.179688 259.617188 511.5 266.933594 L 512.511719 265.921875 C 504.914062 258.332031 494.960938 254.535156 485.007812 254.535156 C 475.058594 254.535156 465.097656 258.332031 457.5 265.921875 C 449.90625 273.507812 446.109375 283.464844 446.109375 293.414062 C 446.109375 303.359375 449.90625 313.316406 457.5 320.902344 C 465.097656 328.492188 475.050781 332.289062 485.007812 332.289062 C 494.957031 332.289062 504.914062 328.492188 512.511719 320.902344 C 520.105469 313.316406 523.902344 303.359375 523.902344 293.414062 C 523.902344 283.464844 520.105469 273.507812 512.511719 265.921875 L 512.003906 266.429688 " fill-opacity="1" fill-rule="nonzero"/><path fill="#4497ab" d="M 507.421875 315.820312 C 503.9375 319.296875 498.296875 319.296875 494.816406 315.820312 C 491.335938 312.339844 491.335938 306.699219 494.816406 303.21875 C 498.296875 299.738281 503.9375 299.738281 507.421875 303.21875 C 510.898438 306.699219 510.898438 312.339844 507.421875 315.820312 M 508.753906 301.882812 C 504.539062 297.671875 497.703125 297.671875 493.484375 301.882812 C 489.265625 306.101562 489.265625 312.933594 493.484375 317.152344 C 497.703125 321.363281 504.539062 321.363281 508.753906 317.152344 C 512.972656 312.933594 512.972656 306.101562 508.753906 301.882812 " fill-opacity="1" fill-rule="nonzero"/><path fill="#4497ab" d="M 475.285156 283.695312 C 471.804688 287.175781 466.164062 287.175781 462.679688 283.695312 C 459.199219 280.21875 459.199219 274.578125 462.679688 271.101562 C 466.164062 267.621094 471.804688 267.621094 475.285156 271.101562 C 478.769531 274.578125 478.769531 280.21875 475.285156 283.695312 Z M 476.617188 269.765625 C 472.40625 265.554688 465.5625 265.554688 461.347656 269.765625 C 457.128906 273.980469 457.128906 280.816406 461.347656 285.03125 C 465.5625 289.242188 472.40625 289.242188 476.617188 285.03125 C 480.832031 280.816406 480.832031 273.980469 476.617188 269.765625 " fill-opacity="1" fill-rule="nonzero"/><path fill="#4497ab" d="M 475.285156 315.820312 C 471.804688 319.296875 466.164062 319.296875 462.679688 315.820312 C 459.199219 312.339844 459.199219 306.699219 462.679688 303.21875 C 466.164062 299.738281 471.804688 299.738281 475.285156 303.21875 C 478.769531 306.699219 478.769531 312.339844 475.285156 315.820312 M 476.617188 301.882812 C 472.40625 297.671875 465.5625 297.671875 461.347656 301.882812 C 457.128906 306.101562 457.128906 312.933594 461.347656 317.152344 C 465.5625 321.363281 472.40625 321.363281 476.617188 317.152344 C 480.832031 312.933594 480.832031 306.101562 476.617188 301.882812 " fill-opacity="1" fill-rule="nonzero"/><path fill="#5ea4d3" d="M 515.453125 321.59375 C 516.523438 320.441406 517.515625 319.238281 518.433594 318.003906 C 517.515625 319.238281 516.527344 320.441406 515.453125 321.59375 " fill-opacity="1" fill-rule="nonzero"/><path fill="#4fa4c6" d="M 503.085938 330.761719 C 506.546875 329.089844 509.816406 326.898438 512.796875 324.207031 C 512.152344 323.988281 511.511719 323.769531 510.863281 323.546875 C 510.566406 323.441406 510.269531 323.339844 509.964844 323.230469 C 510.84375 322.5 511.691406 321.726562 512.511719 320.902344 C 513.734375 319.675781 514.863281 318.390625 515.894531 317.050781 C 516.128906 317.140625 516.363281 317.230469 516.59375 317.320312 C 517.207031 317.542969 517.820312 317.773438 518.433594 318.003906 C 517.515625 319.238281 516.523438 320.441406 515.453125 321.59375 L 518.683594 324.820312 L 516.425781 327.078125 L 517.691406 325.816406 C 516.4375 325.417969 515.191406 325.007812 513.945312 324.589844 L 516.425781 327.078125 L 513.195312 323.847656 C 510.113281 326.707031 506.695312 329.015625 503.085938 330.761719 " fill-opacity="1" fill-rule="nonzero"/><path fill="#4fa4c6" d="M 508.386719 322.675781 C 506.15625 321.894531 503.925781 321.105469 501.707031 320.296875 C 504.269531 320.15625 506.792969 319.105469 508.753906 317.152344 C 509.410156 316.488281 509.964844 315.765625 510.421875 315 C 511.773438 315.511719 513.132812 316.015625 514.488281 316.527344 C 513.574219 317.691406 512.574219 318.820312 511.5 319.890625 C 510.5 320.890625 509.460938 321.816406 508.386719 322.675781 M 493.625 317.285156 C 488.90625 315.484375 484.214844 313.601562 479.574219 311.613281 C 480.246094 308.207031 479.265625 304.527344 476.617188 301.882812 C 474.511719 299.777344 471.746094 298.726562 468.984375 298.726562 C 466.21875 298.726562 463.457031 299.777344 461.347656 301.882812 C 461.066406 302.164062 460.808594 302.449219 460.566406 302.753906 C 456.214844 300.558594 451.90625 298.285156 447.625 295.949219 C 447.570312 295.105469 447.539062 294.257812 447.539062 293.414062 C 447.539062 289.523438 448.140625 285.632812 449.347656 281.898438 C 458.707031 290.757812 470.152344 297.660156 481.9375 303.253906 C 484.792969 304.605469 487.679688 305.890625 490.585938 307.132812 C 489.796875 310.625 490.765625 314.433594 493.484375 317.152344 C 493.527344 317.195312 493.574219 317.242188 493.625 317.285156 " fill-opacity="1" fill-rule="nonzero"/><path fill="#5ea4d3" d="M 507.421875 315.820312 C 507.882812 315.355469 508.28125 314.847656 508.625 314.320312 C 508.285156 314.855469 507.882812 315.355469 507.421875 315.820312 " fill-opacity="1" fill-rule="nonzero"/><path fill="#5ea4d3" d="M 494.816406 315.820312 C 494.808594 315.808594 494.796875 315.804688 494.792969 315.792969 C 494.796875 315.804688 494.808594 315.808594 494.816406 315.820312 " fill-opacity="1" fill-rule="nonzero"/><path fill="#5ea4d3" d="M 494.785156 315.785156 C 494.78125 315.78125 494.777344 315.773438 494.769531 315.769531 C 494.777344 315.773438 494.78125 315.78125 494.785156 315.785156 " fill-opacity="1" fill-rule="nonzero"/><path fill="#5ea4d3" d="M 494.765625 315.765625 C 494.757812 315.757812 494.753906 315.753906 494.746094 315.746094 C 494.753906 315.753906 494.757812 315.757812 494.765625 315.765625 " fill-opacity="1" fill-rule="nonzero"/><path fill="#5ea4d3" d="M 494.734375 315.742188 C 494.730469 315.730469 494.726562 315.722656 494.71875 315.714844 C 494.726562 315.722656 494.730469 315.730469 494.734375 315.742188 " fill-opacity="1" fill-rule="nonzero"/><path fill="#5ea4d3" d="M 494.714844 315.714844 C 494.707031 315.707031 494.703125 315.703125 494.691406 315.691406 C 494.703125 315.703125 494.707031 315.707031 494.714844 315.714844 " fill-opacity="1" fill-rule="nonzero"/><path fill="#5ea4d3" d="M 494.6875 315.683594 C 494.679688 315.679688 494.675781 315.675781 494.667969 315.667969 C 494.675781 315.675781 494.679688 315.679688 494.6875 315.683594 " fill-opacity="1" fill-rule="nonzero"/><path fill="#5ea4d3" d="M 494.664062 315.664062 C 494.65625 315.652344 494.652344 315.644531 494.644531 315.640625 C 494.652344 315.644531 494.65625 315.652344 494.664062 315.664062 " fill-opacity="1" fill-rule="nonzero"/><path fill="#5ea4d3" d="M 494.640625 315.632812 C 494.625 315.617188 494.605469 315.601562 494.597656 315.585938 C 494.605469 315.601562 494.625 315.617188 494.640625 315.632812 " fill-opacity="1" fill-rule="nonzero"/><path fill="#5ea4d3" d="M 494.597656 315.585938 C 494.585938 315.578125 494.578125 315.574219 494.574219 315.5625 C 494.578125 315.574219 494.585938 315.578125 494.597656 315.585938 " fill-opacity="1" fill-rule="nonzero"/><path fill="#5ea4d3" d="M 494.566406 315.5625 C 494.5625 315.550781 494.550781 315.542969 494.546875 315.535156 C 494.550781 315.542969 494.5625 315.550781 494.566406 315.5625 " fill-opacity="1" fill-rule="nonzero"/><path fill="#5ea4d3" d="M 494.546875 315.535156 C 492.984375 313.832031 492.207031 311.675781 492.207031 309.519531 C 492.207031 308.96875 492.257812 308.425781 492.359375 307.886719 C 491.867188 310.554688 492.589844 313.40625 494.546875 315.535156 " fill-opacity="1" fill-rule="nonzero"/><path fill="#4fa4c6" d="M 446.148438 295.132812 C 444.160156 294.042969 442.179688 292.9375 440.210938 291.816406 L 438.972656 291.816406 L 438.972656 295.011719 L 438.972656 291.816406 L 443.539062 291.816406 C 443.707031 287.375 444.597656 282.960938 446.1875 278.75 C 446.84375 279.4375 447.519531 280.125 448.203125 280.796875 C 446.804688 284.878906 446.109375 289.148438 446.109375 293.414062 C 446.109375 293.988281 446.117188 294.5625 446.148438 295.132812 " fill-opacity="1" fill-rule="nonzero"/><path fill="#2a5f7b" d="M 509.964844 323.230469 C 509.4375 323.046875 508.914062 322.859375 508.386719 322.675781 C 509.460938 321.816406 510.5 320.890625 511.5 319.890625 C 512.574219 318.820312 513.574219 317.691406 514.488281 316.527344 C 514.953125 316.703125 515.425781 316.875 515.894531 317.050781 C 514.863281 318.390625 513.734375 319.675781 512.511719 320.902344 C 511.691406 321.726562 510.84375 322.5 509.964844 323.230469 M 447.625 295.949219 C 447.128906 295.679688 446.640625 295.410156 446.148438 295.132812 C 446.117188 294.5625 446.109375 293.988281 446.109375 293.414062 C 446.109375 289.148438 446.804688 284.878906 448.203125 280.796875 C 448.578125 281.167969 448.960938 281.535156 449.347656 281.898438 C 448.140625 285.632812 447.539062 289.523438 447.539062 293.414062 C 447.539062 294.257812 447.570312 295.105469 447.625 295.949219 " fill-opacity="1" fill-rule="nonzero"/><path fill="#3a819e" d="M 501.707031 320.296875 C 499.003906 319.3125 496.308594 318.3125 493.625 317.285156 C 493.574219 317.242188 493.527344 317.195312 493.484375 317.152344 C 490.765625 314.433594 489.796875 310.625 490.585938 307.132812 C 491.175781 307.386719 491.765625 307.632812 492.359375 307.886719 C 492.257812 308.425781 492.207031 308.96875 492.207031 309.519531 C 492.207031 311.675781 492.984375 313.832031 494.546875 315.535156 C 494.550781 315.542969 494.5625 315.550781 494.566406 315.5625 C 494.566406 315.5625 494.566406 315.5625 494.574219 315.5625 C 494.578125 315.574219 494.585938 315.578125 494.597656 315.585938 C 494.605469 315.601562 494.625 315.617188 494.640625 315.632812 C 494.640625 315.640625 494.644531 315.640625 494.644531 315.640625 C 494.652344 315.644531 494.65625 315.652344 494.664062 315.664062 C 494.664062 315.664062 494.667969 315.664062 494.667969 315.667969 C 494.675781 315.675781 494.679688 315.679688 494.6875 315.683594 C 494.691406 315.691406 494.691406 315.691406 494.691406 315.691406 C 494.703125 315.703125 494.707031 315.707031 494.714844 315.714844 L 494.71875 315.714844 C 494.726562 315.722656 494.730469 315.730469 494.734375 315.742188 C 494.742188 315.742188 494.742188 315.742188 494.746094 315.746094 C 494.753906 315.753906 494.757812 315.757812 494.765625 315.765625 C 494.765625 315.765625 494.769531 315.769531 494.769531 315.769531 C 494.777344 315.773438 494.78125 315.78125 494.785156 315.785156 C 494.785156 315.792969 494.792969 315.792969 494.792969 315.792969 C 494.796875 315.804688 494.808594 315.808594 494.816406 315.820312 C 496.554688 317.554688 498.835938 318.425781 501.117188 318.425781 C 503.398438 318.425781 505.679688 317.554688 507.421875 315.820312 C 507.882812 315.355469 508.285156 314.855469 508.625 314.320312 C 509.226562 314.546875 509.824219 314.777344 510.421875 315 C 509.964844 315.765625 509.410156 316.488281 508.753906 317.152344 C 506.792969 319.105469 504.269531 320.15625 501.707031 320.296875 " fill-opacity="1" fill-rule="nonzero"/><path fill="#3a819e" d="M 468.984375 318.425781 C 466.703125 318.425781 464.421875 317.554688 462.679688 315.820312 C 464.421875 317.554688 466.703125 318.425781 468.984375 318.425781 C 471.265625 318.425781 473.546875 317.554688 475.285156 315.820312 C 475.292969 315.8125 475.296875 315.808594 475.304688 315.804688 C 475.296875 315.808594 475.292969 315.8125 475.285156 315.820312 C 473.546875 317.554688 471.265625 318.425781 468.984375 318.425781 M 479.574219 311.613281 C 478.984375 311.363281 478.386719 311.101562 477.796875 310.851562 C 477.867188 310.40625 477.894531 309.964844 477.894531 309.519531 C 477.894531 307.238281 477.027344 304.960938 475.285156 303.21875 C 473.546875 301.480469 471.265625 300.609375 468.984375 300.609375 C 466.703125 300.609375 464.421875 301.480469 462.679688 303.21875 C 462.550781 303.347656 462.421875 303.484375 462.304688 303.617188 C 461.726562 303.332031 461.148438 303.039062 460.566406 302.753906 C 460.808594 302.449219 461.066406 302.164062 461.347656 301.882812 C 463.457031 299.777344 466.21875 298.726562 468.984375 298.726562 C 471.746094 298.726562 474.511719 299.777344 476.617188 301.882812 C 479.265625 304.527344 480.246094 308.207031 479.574219 311.613281 " fill-opacity="1" fill-rule="nonzero"/><path fill="#428cb7" d="M 516.425781 327.078125 L 513.945312 324.589844 C 515.191406 325.007812 516.4375 325.417969 517.691406 325.816406 L 516.425781 327.078125 " fill-opacity="1" fill-rule="nonzero"/><path fill="#5ea4d3" d="M 503.039062 330.785156 C 503.054688 330.773438 503.066406 330.765625 503.085938 330.761719 C 503.066406 330.765625 503.054688 330.773438 503.039062 330.785156 " fill-opacity="1" fill-rule="nonzero"/><path fill="#5ea4d3" d="M 462.679688 315.820312 C 460.9375 314.078125 460.066406 311.800781 460.066406 309.519531 C 460.066406 307.410156 460.816406 305.296875 462.304688 303.617188 C 462.308594 303.617188 462.308594 303.625 462.316406 303.625 C 459.214844 307.121094 459.332031 312.46875 462.679688 315.820312 " fill-opacity="1" fill-rule="nonzero"/><path fill="#5ea4d3" d="M 475.304688 315.804688 C 476.691406 314.398438 477.515625 312.660156 477.785156 310.84375 C 477.785156 310.84375 477.792969 310.84375 477.796875 310.851562 C 477.523438 312.660156 476.691406 314.40625 475.304688 315.804688 " fill-opacity="1" fill-rule="nonzero"/><path fill="#428cb7" d="M 486.601562 339.425781 L 483.410156 339.425781 L 483.410156 334.859375 C 478.359375 334.671875 473.335938 333.558594 468.613281 331.53125 L 466.65625 335.640625 L 463.777344 334.269531 L 465.730469 330.160156 C 462.558594 328.5 459.558594 326.394531 456.808594 323.847656 L 453.585938 327.078125 L 451.328125 324.820312 L 454.558594 321.59375 C 453.78125 320.753906 453.046875 319.898438 452.347656 319.015625 C 450.769531 317.003906 449.398438 314.882812 448.238281 312.675781 L 446.488281 313.507812 L 444.128906 314.628906 L 442.753906 311.753906 L 446.867188 309.792969 C 444.84375 305.078125 443.730469 300.058594 443.539062 295.011719 L 438.972656 295.011719 L 438.972656 291.816406 L 440.210938 291.816406 C 442.179688 292.9375 444.160156 294.042969 446.148438 295.132812 C 446.558594 304.5 450.34375 313.753906 457.5 320.902344 C 465.097656 328.492188 475.050781 332.289062 485.007812 332.289062 C 493.882812 332.289062 502.765625 329.269531 509.964844 323.230469 C 510.269531 323.339844 510.566406 323.441406 510.863281 323.546875 C 511.511719 323.769531 512.152344 323.988281 512.796875 324.207031 C 509.816406 326.898438 506.546875 329.089844 503.085938 330.761719 C 503.066406 330.765625 503.054688 330.773438 503.039062 330.785156 L 504.859375 334.957031 L 501.933594 336.230469 L 500.113281 332.054688 C 495.769531 333.75 491.195312 334.6875 486.601562 334.859375 L 486.601562 339.425781 M 485.007812 330.855469 C 475.417969 330.855469 465.832031 327.207031 458.511719 319.890625 C 451.84375 313.226562 448.214844 304.667969 447.625 295.949219 C 451.90625 298.285156 456.214844 300.558594 460.566406 302.753906 C 457.148438 306.988281 457.410156 313.207031 461.347656 317.152344 C 463.457031 319.257812 466.21875 320.3125 468.984375 320.3125 C 471.746094 320.3125 474.511719 319.257812 476.617188 317.152344 C 478.191406 315.578125 479.175781 313.640625 479.574219 311.613281 C 484.214844 313.601562 488.90625 315.484375 493.625 317.285156 C 495.714844 319.300781 498.414062 320.3125 501.117188 320.3125 C 501.316406 320.3125 501.511719 320.304688 501.707031 320.296875 C 503.925781 321.105469 506.15625 321.894531 508.386719 322.675781 C 501.566406 328.132812 493.285156 330.855469 485.007812 330.855469 " fill-opacity="1" fill-rule="nonzero"/><path fill="#245271" d="M 485.007812 332.289062 C 475.050781 332.289062 465.097656 328.492188 457.5 320.902344 C 450.34375 313.753906 446.558594 304.5 446.148438 295.132812 C 446.640625 295.410156 447.128906 295.679688 447.625 295.949219 C 448.214844 304.667969 451.84375 313.226562 458.511719 319.890625 C 465.832031 327.207031 475.417969 330.855469 485.007812 330.855469 C 493.285156 330.855469 501.566406 328.132812 508.386719 322.675781 C 508.914062 322.859375 509.4375 323.046875 509.964844 323.230469 C 502.765625 329.269531 493.882812 332.289062 485.007812 332.289062 " fill-opacity="1" fill-rule="nonzero"/><path fill="#316f93" d="M 501.117188 320.3125 C 498.414062 320.3125 495.714844 319.300781 493.625 317.285156 C 496.308594 318.3125 499.003906 319.3125 501.707031 320.296875 C 501.511719 320.304688 501.316406 320.3125 501.117188 320.3125 " fill-opacity="1" fill-rule="nonzero"/><path fill="#316f93" d="M 468.984375 320.3125 C 466.21875 320.3125 463.457031 319.257812 461.347656 317.152344 C 457.410156 313.207031 457.148438 306.988281 460.566406 302.753906 C 461.148438 303.039062 461.726562 303.332031 462.304688 303.617188 C 460.816406 305.296875 460.066406 307.410156 460.066406 309.519531 C 460.066406 311.800781 460.9375 314.078125 462.679688 315.820312 C 464.421875 317.554688 466.703125 318.425781 468.984375 318.425781 C 471.265625 318.425781 473.546875 317.554688 475.285156 315.820312 C 475.292969 315.8125 475.296875 315.808594 475.304688 315.804688 C 476.691406 314.40625 477.523438 312.660156 477.796875 310.851562 C 478.386719 311.101562 478.984375 311.363281 479.574219 311.613281 C 479.175781 313.640625 478.191406 315.578125 476.617188 317.152344 C 474.511719 319.257812 471.746094 320.3125 468.984375 320.3125 " fill-opacity="1" fill-rule="nonzero"/><path fill="#63c0d5" d="M 442.828125 274.980469 L 442.164062 276.492188 L 445.398438 277.902344 C 444.519531 276.945312 443.660156 275.976562 442.828125 274.980469 " fill-opacity="1" fill-rule="nonzero"/></svg>